<?xml version="1.0" standalone="no"?>
<!DOCTYPE svg PUBLIC "-//W3C//DTD SVG 20010904//EN"
 "http://www.w3.org/TR/2001/REC-SVG-20010904/DTD/svg10.dtd">
<svg version="1.0" xmlns="http://www.w3.org/2000/svg"
 width="354.000000pt" height="354.000000pt" viewBox="0 0 354.000000 354.000000"
 preserveAspectRatio="xMidYMid meet">
<metadata>
Created by potrace 1.11, written by Peter Selinger 2001-2013
</metadata>
<g transform="translate(0.000000,354.000000) scale(0.100000,-0.100000)"
fill="#000000" stroke="none">
<path d="M1530 3524 c-654 -94 -1195 -543 -1414 -1173 -110 -315 -126 -684
-45 -1006 112 -442 387 -823 771 -1069 152 -96 402 -197 573 -230 44 -9 94
-19 110 -22 67 -14 400 -13 490 2 465 74 854 302 1134 664 192 248 291 481
357 840 3 19 7 118 9 220 3 158 0 205 -20 320 -98 567 -458 1048 -970 1295
-110 53 -247 104 -340 126 -198 45 -470 59 -655 33z m270 -51 c0 -5 -51 -8
-113 -9 -79 -1 -97 1 -62 6 72 10 175 11 175 3z m30 -3 c0 -5 -2 -10 -4 -10
-3 0 -8 5 -11 10 -3 6 -1 10 4 10 6 0 11 -4 11 -10z m135 -5 c545 -55 1063
-419 1316 -925 173 -347 224 -725 148 -1105 -41 -204 -129 -418 -241 -591
-200 -306 -504 -548 -838 -669 -97 -35 -290 -86 -290 -76 0 4 28 13 63 20 34
7 114 30 178 51 535 177 952 627 1094 1180 33 129 46 228 50 380 8 294 -49
548 -180 810 -125 250 -297 450 -533 619 -224 160 -514 271 -772 296 -85 9
-111 13 -118 20 -3 3 10 3 29 1 19 -3 61 -8 94 -11z m-520 -30 c-233 -49 -441
-137 -626 -267 -169 -119 -298 -247 -430 -428 -91 -125 -206 -381 -249 -553
-83 -337 -58 -715 68 -1034 159 -400 443 -708 829 -902 147 -73 280 -115 478
-151 70 -12 88 -18 50 -14 -219 19 -501 121 -714 258 -351 226 -623 608 -726
1020 -110 443 -34 922 207 1311 239 384 647 671 1088 765 47 10 96 18 110 18
14 0 -24 -10 -85 -23z m450 -9 c55 -3 113 -8 130 -11 264 -52 446 -123 645
-252 116 -75 169 -119 280 -233 500 -508 615 -1304 277 -1932 -141 -264 -374
-509 -617 -652 -166 -98 -420 -190 -580 -211 -135 -17 -184 -21 -271 -19 -269
5 -485 57 -724 175 -454 224 -781 653 -886 1162 -27 130 -36 378 -20 514 24
190 82 387 166 554 163 325 441 597 771 754 181 86 434 149 612 154 42 1 78 4
80 5 2 2 11 2 20 0 9 -1 62 -5 117 -8z m145 -3329 c-15 -14 -382 -35 -368 -22
3 4 51 7 105 7 54 0 121 3 148 7 74 9 120 13 115 8z m-386 -15 c3 -5 -1 -9 -9
-9 -8 0 -15 4 -15 9 0 4 4 8 9 8 6 0 12 -4 15 -8z"/>
<path d="M1603 3384 c-3 -8 1 -33 10 -55 18 -45 6 -54 -13 -10 -15 37 -55 75
-69 66 -17 -10 -13 -27 15 -56 33 -35 42 -96 20 -140 -27 -54 -17 -79 16 -41
18 19 39 88 30 96 -3 3 0 6 6 6 14 0 20 -30 11 -56 -4 -11 -3 -27 2 -35 8 -12
12 -11 24 5 19 25 19 75 1 102 -14 19 -13 20 13 16 40 -6 71 24 74 73 1 30 -2
40 -13 40 -8 0 -17 -11 -18 -25 -9 -61 -47 -66 -69 -10 -17 42 -30 50 -40 24z"/>
<path d="M1662 3368 c2 -18 8 -33 13 -33 6 0 11 15 13 33 3 24 -1 32 -13 32
-12 0 -16 -8 -13 -32z"/>
<path d="M1769 3398 c-1 -1 -2 -18 -4 -36 -2 -21 -14 -45 -33 -65 -46 -48 -63
-104 -42 -137 12 -19 22 -8 26 32 4 36 32 79 55 86 8 3 4 -4 -9 -14 -30 -25
-44 -104 -18 -104 9 0 16 8 16 18 0 24 28 62 46 62 10 0 14 -12 14 -40 0 -67
31 -46 35 24 1 17 5 39 9 49 13 28 -9 44 -32 24 -10 -9 -25 -17 -33 -17 -9 0
-7 5 6 12 30 17 44 40 45 70 0 42 -27 52 -35 11 -2 -10 -4 -22 -5 -28 -1 -5
-5 3 -9 19 -5 24 -28 48 -32 34z"/>
<path d="M1890 3371 c-19 -36 -12 -89 14 -112 13 -12 26 -37 30 -58 7 -43 42
-84 51 -59 3 8 -1 28 -10 44 -28 53 -17 112 31 159 19 19 24 29 15 38 -15 15
-61 -20 -83 -64 -13 -27 -18 -31 -23 -17 -3 9 0 30 9 46 8 16 12 32 9 36 -12
12 -32 6 -43 -13z"/>
<path d="M1395 3363 c-94 -48 -113 -140 -44 -211 39 -40 89 -50 135 -28 105
50 94 218 -15 242 -14 3 -31 7 -36 9 -6 1 -24 -4 -40 -12z m86 -43 c10 -6 26
-24 34 -41 47 -89 -76 -168 -145 -94 -65 70 26 180 111 135z"/>
<path d="M1413 3310 c-69 -28 -49 -140 25 -140 62 0 91 92 43 131 -25 21 -35
22 -68 9z m52 -64 c0 -30 -31 -44 -51 -24 -15 14 -15 20 -4 33 18 21 55 15 55
-9z"/>
<path d="M2039 3355 c-32 -17 -59 -71 -59 -117 0 -62 61 -128 119 -128 42 0
91 33 111 75 25 52 25 81 0 122 -35 58 -113 80 -171 48z m127 -56 c43 -40 24
-118 -33 -140 -68 -26 -140 47 -112 113 24 58 98 72 145 27z"/>
<path d="M2072 3307 c-23 -11 -40 -50 -34 -83 8 -54 81 -75 114 -34 49 61 -10
148 -80 117z m56 -65 c4 -28 -24 -40 -45 -19 -21 21 -9 49 19 45 15 -2 24 -11
26 -26z"/>
<path d="M1276 3321 c-11 -13 -19 -37 -19 -66 -1 -25 -5 -45 -9 -45 -10 0 -22
-42 -19 -70 3 -28 38 -70 58 -70 19 0 16 24 -7 45 -11 10 -20 27 -20 37 0 15
8 10 38 -22 22 -22 46 -40 55 -40 28 0 19 34 -13 53 -40 24 -58 83 -42 140 13
49 3 66 -22 38z"/>
<path d="M2228 3328 c-3 -7 2 -25 10 -41 20 -40 8 -90 -33 -133 -36 -38 -45
-64 -22 -64 15 0 77 58 77 71 0 5 8 9 18 9 16 -1 16 -1 -1 -11 -26 -15 -51
-69 -38 -82 8 -8 19 -2 40 23 27 32 31 33 45 20 12 -12 14 -23 7 -48 -10 -32
-1 -49 19 -37 15 9 23 75 12 100 -6 13 -20 26 -30 29 -20 7 -20 7 1 44 14 26
18 46 13 65 -10 40 -36 35 -36 -7 0 -18 -6 -39 -14 -45 -11 -9 -14 -4 -14 30
-1 57 -42 115 -54 77z"/>
<path d="M1199 3288 c-4 -29 2 -73 10 -81 17 -17 31 4 27 41 -3 20 -5 40 -5
45 -2 12 -31 8 -32 -5z"/>
<path d="M2370 3261 c-15 -29 -12 -85 6 -130 14 -36 14 -44 1 -70 -24 -49 4
-64 31 -16 10 17 11 17 12 3 0 -9 -4 -19 -10 -23 -11 -6 -2 -35 11 -35 14 0
32 42 31 73 0 17 -12 41 -25 56 -30 32 -38 63 -27 102 15 50 -8 80 -30 40z"/>
<path d="M1133 3248 c3 -13 9 -33 12 -45 6 -20 4 -23 -18 -23 -15 0 -33 10
-45 25 -11 14 -25 25 -31 25 -20 0 -11 -41 15 -67 22 -22 32 -25 69 -21 24 3
47 2 52 -3 4 -4 15 -4 23 1 12 8 12 11 -3 28 -9 10 -17 22 -17 26 0 5 -7 23
-16 42 -19 39 -50 48 -41 12z"/>
<path d="M1085 3240 c-9 -14 13 -50 30 -50 18 0 20 31 3 48 -15 15 -25 15 -33
2z"/>
<path d="M1875 3239 c-9 -14 3 -77 17 -85 12 -7 28 13 23 30 -2 6 -6 23 -9 39
-7 28 -20 35 -31 16z"/>
<path d="M2414 3215 c-7 -41 7 -82 37 -103 10 -7 19 -19 19 -27 0 -7 6 -15 12
-17 10 -4 10 -10 0 -32 -16 -36 -15 -76 2 -76 8 0 17 15 20 34 4 19 13 37 22
40 12 5 14 1 8 -17 -10 -31 -7 -88 6 -101 15 -15 24 1 22 42 -3 52 29 99 83
123 31 14 42 24 39 34 -9 22 -49 18 -81 -8 -35 -30 -103 -43 -103 -20 0 8 9
26 20 40 21 27 27 68 11 77 -5 3 -19 -10 -30 -30 -18 -31 -24 -34 -37 -23 -10
8 -14 26 -12 53 2 32 -1 41 -14 44 -12 2 -19 -6 -24 -33z"/>
<path d="M1780 3204 c-7 -17 -7 -31 -1 -37 14 -14 31 1 31 28 0 35 -18 40 -30
9z"/>
<path d="M2464 3216 c-8 -20 -1 -49 12 -53 13 -4 28 43 19 57 -9 15 -25 12
-31 -4z"/>
<path d="M993 3194 c-9 -25 17 -62 60 -83 l39 -19 -28 -4 c-42 -5 -61 -47 -42
-96 21 -56 40 -54 36 4 -3 43 0 49 18 52 13 2 25 -6 34 -23 14 -26 40 -34 40
-12 0 14 -28 58 -44 69 -16 11 2 10 24 -2 10 -5 21 -21 24 -35 4 -14 11 -25
17 -25 16 0 21 27 9 52 -9 19 -7 18 10 -4 26 -33 40 -36 40 -8 0 36 -44 70
-89 70 -56 0 -89 15 -109 50 -19 33 -30 37 -39 14z"/>
<path d="M930 3155 c0 -9 12 -27 28 -40 35 -30 23 -44 -15 -16 -15 11 -43 24
-60 27 -29 6 -33 4 -33 -15 0 -12 6 -21 15 -21 53 0 102 -59 108 -131 2 -30 8
-44 18 -44 11 0 14 19 16 80 1 44 2 89 3 99 1 11 -8 31 -18 45 -22 31 -62 41
-62 16z"/>
<path d="M2566 3154 c-31 -30 -38 -54 -21 -61 22 -8 70 40 62 61 -8 20 -21 20
-41 0z"/>
<path d="M1591 3109 c-25 -5 -63 -11 -84 -15 -67 -9 -240 -70 -328 -114 -176
-88 -358 -240 -477 -400 -394 -530 -345 -1277 115 -1745 234 -238 532 -380
850 -403 397 -29 765 110 1051 398 246 248 383 585 384 940 1 661 -461 1213
-1116 1334 -85 15 -321 18 -395 5z m136 -25 c-6 -6 -28 -9 -127 -19 -36 -4
-62 -4 -59 -1 5 5 64 13 173 23 10 1 16 0 13 -3z m63 -2 c0 -4 -9 -8 -20 -8
-11 0 -20 4 -20 8 0 4 9 8 20 8 11 0 20 -4 20 -8z m60 -4 c0 -4 -4 -8 -9 -8
-6 0 -12 4 -15 8 -3 5 1 9 9 9 8 0 15 -4 15 -9z m94 -6 c2 -4 -12 -6 -32 -4
-56 5 -62 10 -15 11 23 1 44 -3 47 -7z m66 -11 c0 -4 -11 -6 -25 -3 -14 2 -25
6 -25 8 0 2 11 4 25 4 14 0 25 -4 25 -9z m-560 -25 c-503 -134 -866 -536 -956
-1056 -12 -73 -15 -130 -11 -245 7 -173 11 -200 44 -314 121 -422 434 -749
845 -886 57 -19 97 -34 89 -35 -25 0 -190 59 -269 98 -249 123 -466 342 -595
598 -91 182 -130 352 -130 574 0 236 36 389 138 595 164 328 456 569 820 675
33 10 71 18 85 18 14 1 -13 -9 -60 -22z m668 3 c417 -117 763 -451 895 -864
53 -167 76 -396 55 -565 -26 -204 -118 -437 -239 -601 -79 -107 -223 -249
-322 -317 -88 -61 -252 -142 -347 -171 -108 -34 -102 -23 7 14 436 147 748
489 860 944 23 92 27 128 27 271 1 187 -4 238 -39 366 -91 335 -304 611 -610
792 -88 52 -173 88 -295 123 -52 15 -89 28 -81 28 8 1 48 -8 89 -20z m-134
-45 c531 -95 939 -523 1012 -1064 10 -78 7 -278 -6 -352 -96 -553 -546 -982
-1085 -1035 -370 -37 -705 76 -979 328 -85 78 -204 236 -255 338 -210 419
-171 925 100 1292 287 388 749 577 1213 493z m-439 -2504 c27 -7 27 -8 5 -8
-14 0 -36 4 -50 8 -20 6 -21 8 -5 8 11 0 34 -4 50 -8z m515 6 c0 -2 -11 -6
-25 -8 -14 -3 -25 -1 -25 3 0 5 11 9 25 9 14 0 25 -2 25 -4z m-230 -23 c64 2
97 1 75 -3 -54 -10 -305 -4 -316 7 -6 6 17 6 58 1 38 -5 120 -7 183 -5z m170
13 c0 -2 -11 -6 -25 -8 -13 -3 -22 -1 -19 3 5 9 44 13 44 5z"/>
<path d="M1014 2300 c-6 -6 -36 -12 -66 -13 -31 -1 -54 -5 -52 -8 2 -4 -3 -10
-12 -13 -10 -4 -13 -2 -8 7 4 6 -2 4 -13 -5 -11 -10 -23 -18 -28 -18 -5 0 -20
-10 -33 -22 -14 -13 -22 -17 -18 -10 4 6 2 12 -3 12 -6 0 -11 -6 -11 -13 0 -8
-12 -24 -27 -38 l-28 -24 25 30 c18 22 20 25 4 12 -11 -9 -24 -14 -28 -10 -4
5 -7 4 -6 -2 6 -27 -2 -47 -22 -55 -13 -5 -17 -9 -10 -9 10 -1 10 -6 2 -21 -8
-15 -17 -19 -33 -14 -21 6 -22 6 -2 -9 15 -12 17 -18 7 -29 -6 -8 -8 -19 -4
-24 4 -4 -2 -2 -12 6 -18 14 -19 14 -9 -5 7 -14 7 -28 0 -45 -5 -14 -11 -39
-13 -57 -5 -47 -8 -57 -19 -65 -6 -5 -5 -8 3 -8 6 0 12 -5 12 -11 0 -5 -5 -7
-12 -3 -7 5 -8 3 -2 -7 13 -20 14 -100 1 -92 -6 4 -7 1 -1 -8 15 -24 14 -43
-4 -64 -16 -19 -16 -19 1 -6 15 12 17 11 18 -5 1 -11 3 -28 5 -39 2 -11 6 -31
8 -45 2 -14 5 -25 6 -25 1 0 3 -11 4 -23 2 -13 7 -27 13 -30 6 -4 9 -15 7 -25
-1 -10 2 -14 9 -10 7 4 8 0 4 -11 -4 -9 -3 -15 2 -12 5 3 17 -7 26 -22 10 -15
24 -31 32 -35 7 -5 10 -13 7 -19 -4 -7 -2 -8 5 -4 6 4 14 0 17 -8 3 -9 10 -14
14 -11 5 3 13 -3 19 -12 6 -10 11 -14 11 -10 0 5 12 1 28 -7 101 -58 327 -48
404 17 23 20 95 184 85 194 -2 1 -15 -6 -28 -17 -13 -11 -28 -23 -34 -28 -5
-4 -30 -26 -55 -47 -25 -22 -39 -32 -31 -22 8 9 12 20 9 23 -3 2 -13 -11 -22
-31 -10 -20 -22 -33 -28 -29 -5 4 -14 0 -19 -7 -10 -17 -31 -19 -41 -4 -5 6
-8 2 -8 -9 0 -16 -2 -17 -17 -5 -9 8 -14 9 -10 3 4 -7 -2 -11 -18 -11 -14 0
-25 3 -25 7 0 5 -9 6 -20 3 -12 -3 -22 1 -26 11 -3 9 -10 13 -15 10 -5 -3 -22
9 -39 26 -87 89 -128 212 -127 382 0 270 107 438 279 441 52 1 70 -5 163 -53
58 -30 105 -60 105 -67 0 -8 -7 -10 -17 -6 -15 6 -16 4 -5 -9 10 -13 10 -18 1
-24 -8 -4 -9 -3 -5 4 4 7 5 12 2 12 -3 0 -10 -10 -17 -21 -7 -15 -8 -19 0 -15
12 8 4 -21 -11 -41 -6 -7 -6 -18 -2 -25 6 -10 5 -11 -7 -1 -13 10 -16 10 -16
-2 0 -8 4 -15 9 -15 4 0 8 -4 8 -10 0 -5 -8 -7 -17 -3 -15 5 -14 3 2 -10 17
-14 18 -16 3 -17 -9 0 -20 -4 -23 -10 -3 -5 0 -7 7 -5 9 4 14 -4 16 -22 1 -22
0 -25 -9 -13 -9 12 -10 11 -4 -5 17 -47 18 -58 7 -51 -7 4 -12 2 -12 -3 0 -6
4 -11 9 -11 5 0 7 -18 6 -40 -2 -22 1 -37 6 -34 13 7 7 -19 -6 -28 -6 -5 -5
-8 3 -8 6 0 12 -7 12 -16 0 -9 -5 -12 -12 -8 -7 4 -8 3 -4 -5 4 -6 11 -9 16
-6 4 3 11 -2 14 -11 9 -24 7 -31 -4 -14 -7 10 -10 11 -10 2 0 -7 7 -15 15 -18
8 -4 12 -10 9 -15 -3 -5 1 -9 8 -9 9 0 9 -3 -2 -10 -9 -6 -10 -10 -3 -10 18 0
63 -52 56 -64 -3 -6 -3 -8 1 -4 4 3 29 -5 56 -18 76 -38 169 -29 231 23 31 27
89 133 89 164 0 9 3 19 7 23 4 3 9 28 10 54 2 25 9 50 16 54 8 5 8 8 1 8 -6 0
-11 6 -11 13 0 6 -3 39 -7 72 -4 33 -8 69 -9 80 -1 11 -4 22 -7 25 -3 3 -14
23 -24 46 -25 57 -75 110 -124 132 -23 10 -39 22 -36 25 4 4 -6 3 -22 -1 -16
-4 -42 -7 -59 -7 -16 0 -33 -4 -37 -10 -5 -6 -12 -4 -18 5 -10 13 -10 13 -8 0
2 -9 0 -15 -3 -15 -3 0 -17 -13 -30 -29 l-25 -29 -42 70 c-51 87 -88 105 -229
114 -18 1 -30 6 -27 11 7 11 0 10 -12 -2z m-242 -192 c-9 -18 -18 -35 -19 -37
-1 -1 -7 0 -13 4 -8 5 -3 17 16 36 15 16 29 29 30 29 2 0 -5 -15 -14 -32z
m717 11 c5 8 13 6 27 -5 10 -8 13 -12 5 -8 -9 5 -12 3 -7 -4 4 -7 14 -12 22
-12 8 0 14 -5 14 -11 0 -5 -6 -7 -12 -3 -7 4 -5 -2 5 -13 9 -11 14 -23 10 -26
-3 -4 -2 -7 4 -7 5 0 10 -6 11 -12 3 -36 8 -54 15 -59 11 -8 15 -149 4 -142
-5 3 -5 -2 0 -13 5 -11 8 -30 7 -44 -1 -14 -2 -36 -3 -50 -1 -20 -3 -22 -11
-10 -9 13 -10 13 -10 -1 0 -8 5 -20 11 -26 8 -8 7 -13 -2 -18 -8 -6 -10 -4 -4
5 5 9 4 11 -4 6 -9 -6 -9 -11 1 -24 11 -13 11 -15 -3 -10 -9 4 -16 1 -16 -8 0
-7 5 -10 11 -7 6 4 5 0 -1 -9 -7 -8 -10 -18 -6 -21 3 -4 1 -7 -6 -7 -7 0 -10
-4 -7 -9 7 -11 -31 -61 -47 -61 -6 0 -2 7 9 16 17 15 17 15 -8 0 -32 -19 -42
-20 -32 -4 5 7 2 9 -8 6 -24 -10 -61 56 -79 139 -27 130 -14 305 30 391 23 44
63 80 70 61 2 -8 5 -8 10 0z m-743 -60 c3 -6 1 -16 -6 -22 -10 -9 -11 -9 -5 2
5 10 4 12 -4 7 -7 -5 -8 -13 -3 -23 13 -22 -7 -100 -20 -81 -7 9 -8 7 -5 -9 6
-29 -4 -30 -21 -2 -10 16 -11 28 -2 55 7 20 16 31 22 28 7 -4 8 -2 4 4 -8 13
10 52 24 52 5 0 12 -5 16 -11z m-40 -267 c-1 -7 -8 -18 -16 -25 -8 -7 -10 -8
-7 -1 4 7 0 15 -8 18 -13 4 -14 10 -5 26 9 16 13 18 24 8 7 -7 13 -19 12 -26z
m9 -182 c-3 -5 -1 -12 5 -15 8 -5 7 -12 -2 -23 -10 -12 -10 -14 0 -8 6 4 12 2
12 -3 0 -6 -6 -11 -12 -11 -9 0 -9 -3 1 -9 8 -5 16 -17 17 -25 1 -9 12 -33 24
-52 11 -20 18 -39 15 -42 -3 -3 -5 -1 -5 4 0 5 -12 23 -26 39 -34 39 -56 83
-49 95 3 6 2 10 -4 10 -20 0 -29 63 -12 89 l15 24 13 -32 c8 -18 11 -36 8 -41z"/>
<path d="M670 1796 c0 -2 7 -7 16 -10 8 -3 12 -2 9 4 -6 10 -25 14 -25 6z"/>
<path d="M1713 2174 c-17 -17 -16 -24 2 -24 8 0 15 -7 15 -16 0 -8 4 -13 9 -9
5 3 12 1 16 -5 3 -5 2 -10 -3 -10 -15 0 -23 -28 -10 -36 6 -4 8 -3 4 4 -3 6
-3 13 2 16 13 8 8 -86 -6 -114 -13 -24 -12 -24 3 -5 l17 20 -4 -20 c-2 -11
-10 -26 -18 -33 -13 -11 -13 -12 0 -10 15 3 15 0 6 -82 -1 -14 0 -29 3 -35 9
-16 8 -54 -1 -49 -4 3 -8 0 -8 -5 0 -6 5 -11 10 -11 6 0 10 -5 10 -11 0 -5 -4
-8 -8 -5 -5 3 -9 -1 -9 -9 0 -8 4 -12 9 -9 4 3 8 1 8 -5 0 -5 -5 -13 -10 -16
-6 -4 -7 -12 -3 -18 4 -6 7 -45 8 -87 0 -66 -2 -78 -22 -96 -13 -12 -23 -23
-23 -26 0 -2 80 -4 178 -4 l179 0 0 153 c0 84 -2 153 -3 153 -1 0 -10 -21 -20
-47 -10 -27 -26 -54 -36 -61 -10 -7 -18 -18 -18 -24 0 -7 7 -3 15 8 20 27 19
4 -2 -25 -12 -18 -13 -22 -2 -16 8 4 4 -2 -9 -14 -19 -19 -21 -25 -10 -39 11
-13 11 -14 -1 -7 -11 6 -13 4 -8 -8 6 -17 -19 -32 -29 -16 -4 7 -10 6 -19 -1
-9 -8 -14 -6 -19 6 -3 8 -6 147 -6 307 l0 292 33 23 32 22 -48 0 c-31 0 -47 4
-47 13 0 8 -4 7 -10 -3 -8 -13 -13 -13 -31 -2 -11 8 -18 9 -14 3 7 -12 -77
-13 -85 -1 -3 4 -11 2 -17 -6z"/>
<path d="M2126 2178 c3 -4 -4 -8 -15 -8 -12 0 -21 -4 -21 -10 0 -5 5 -10 11
-10 5 0 7 -5 4 -10 -4 -6 -3 -10 2 -9 20 3 34 -2 28 -11 -3 -5 -1 -10 6 -10 7
0 5 -9 -7 -22 -13 -16 -14 -19 -2 -10 15 12 16 7 16 -50 0 -35 -6 -69 -12 -77
-8 -11 -8 -13 2 -7 8 5 12 0 12 -16 0 -13 -6 -30 -12 -37 -10 -11 -10 -13 0
-7 8 5 12 -3 12 -29 0 -26 -3 -34 -12 -29 -7 4 -10 4 -6 -1 4 -4 2 -15 -5 -24
-11 -14 -10 -14 6 -2 14 11 17 11 17 -1 0 -8 -6 -20 -12 -27 -11 -10 -9 -11 7
-6 20 7 20 6 1 -9 -11 -9 -15 -16 -10 -16 15 0 16 -51 2 -68 -9 -11 -9 -14 -1
-9 6 4 14 3 18 -3 3 -5 1 -10 -5 -10 -7 0 -9 -8 -5 -21 4 -13 0 -28 -12 -42
-16 -19 -16 -20 0 -8 22 17 24 -4 3 -28 -11 -12 -12 -21 -5 -31 9 -13 10 -12
5 2 -3 10 0 20 5 24 7 4 9 -3 7 -17 -2 -16 -9 -23 -20 -21 -9 1 -20 -3 -24 -9
-5 -8 -2 -10 7 -5 8 4 3 -1 -10 -12 l-24 -19 149 2 c82 1 161 8 177 14 15 6
27 8 27 6 0 -16 79 39 98 69 28 41 36 126 16 172 -16 38 -68 84 -95 84 -11 0
-17 4 -14 10 3 6 -1 7 -9 4 -28 -11 -17 14 13 32 63 37 91 146 56 214 -14 27
-67 87 -72 82 -8 -6 -23 -1 -19 6 5 8 -3 9 -129 13 -44 1 -83 7 -87 13 -5 8
-8 7 -8 -1 0 -7 -9 -13 -21 -13 -11 0 -18 4 -15 8 3 5 -1 9 -9 9 -8 0 -12 -4
-9 -9z m204 -72 c34 -11 72 -56 67 -78 -3 -10 -1 -18 4 -18 5 0 9 -4 9 -10 0
-5 -8 -7 -17 -3 -15 5 -14 3 2 -10 13 -11 15 -16 6 -17 -11 0 -11 -3 0 -17 12
-14 12 -16 0 -8 -11 6 -13 3 -9 -13 4 -12 2 -20 -3 -16 -5 3 -9 0 -9 -6 0 -22
-43 -49 -63 -39 -9 6 -16 6 -15 2 2 -4 -1 -10 -7 -13 -6 -3 -11 43 -13 127 -3
141 -5 136 48 119z m4 -327 c-3 -5 1 -6 9 -3 9 3 29 -9 48 -27 19 -18 26 -30
16 -26 -9 3 -17 2 -17 -3 0 -6 7 -10 16 -10 8 0 12 -4 9 -10 -3 -5 0 -10 7
-10 9 0 9 -3 -2 -10 -9 -6 -10 -10 -3 -10 11 0 11 -20 -2 -62 -5 -13 -12 -17
-23 -13 -13 5 -14 3 -6 -5 16 -16 -26 -63 -42 -49 -8 7 -15 6 -20 -2 -5 -8 -3
-9 6 -4 9 6 11 4 6 -4 -5 -7 -14 -10 -22 -7 -8 3 -14 0 -15 -7 0 -7 -6 0 -12
14 -10 21 -15 184 -8 255 1 6 14 9 31 6 16 -2 27 -8 24 -13z"/>
<path d="M2355 1569 c-4 -6 -5 -12 -2 -15 2 -3 7 2 10 11 7 17 1 20 -8 4z"/>
<path d="M2525 2180 c-4 -6 -12 -10 -18 -9 -27 3 -47 -2 -47 -11 0 -5 5 -9 12
-7 6 1 17 -8 23 -20 7 -13 15 -20 20 -15 4 4 5 -1 2 -10 -4 -10 -2 -18 2 -18
5 0 12 -7 15 -16 5 -12 3 -14 -7 -8 -7 5 -4 1 6 -8 11 -10 17 -25 13 -33 -3
-9 1 -18 10 -22 8 -3 13 -12 10 -20 -4 -9 -2 -11 6 -7 7 5 9 2 5 -9 -3 -9 0
-18 9 -21 9 -3 13 -10 9 -15 -3 -5 -1 -12 5 -16 5 -3 10 -15 10 -25 0 -10 6
-21 13 -23 8 -4 8 -6 -2 -6 -11 -1 -10 -5 5 -16 17 -13 17 -14 2 -15 -9 0 -20
-4 -23 -10 -3 -5 0 -7 8 -4 10 4 16 -4 19 -24 3 -24 1 -29 -11 -24 -14 5 -14
4 -2 -11 17 -22 21 -87 4 -87 -6 0 -15 -4 -18 -10 -3 -6 1 -7 9 -4 13 5 16 -3
17 -45 3 -103 2 -104 -17 -97 -9 4 -13 2 -8 -5 4 -6 1 -15 -6 -19 -29 -18 5
-26 97 -24 54 1 102 2 107 3 5 0 0 11 -12 24 -21 22 -22 33 -22 184 l0 161 59
142 c33 79 70 153 82 166 l22 24 -29 0 c-17 0 -36 6 -43 13 -11 10 -13 10 -7
0 5 -9 -1 -13 -19 -13 -14 0 -24 4 -21 9 4 5 -5 4 -18 -2 -23 -11 -24 -12 -7
-37 18 -26 17 -65 -1 -54 -6 4 -8 -2 -4 -17 7 -22 6 -23 -7 -6 -14 17 -15 16
-13 -7 0 -13 4 -22 8 -20 4 3 5 -3 1 -12 -6 -16 -7 -16 -19 0 -11 15 -12 14
-10 -8 0 -13 5 -22 9 -19 5 3 1 -9 -7 -26 -15 -29 -28 -41 -24 -23 0 4 -16 43
-36 87 -36 77 -37 81 -21 107 l16 28 -48 1 c-26 1 -61 0 -77 -1 -18 -1 -26 2
-22 9 4 6 5 11 2 11 -3 0 -8 -5 -11 -10z"/>
<path d="M656 2107 c3 -10 9 -15 12 -12 3 3 0 11 -7 18 -10 9 -11 8 -5 -6z"/>
<path d="M1730 2019 c0 -5 5 -7 10 -4 6 3 10 8 10 11 0 2 -4 4 -10 4 -5 0 -10
-5 -10 -11z"/>
<path d="M1240 2000 c-9 -6 -10 -10 -3 -10 6 0 15 5 18 10 8 12 4 12 -15 0z"/>
<path d="M590 1919 c0 -5 5 -7 10 -4 6 3 10 8 10 11 0 2 -4 4 -10 4 -5 0 -10
-5 -10 -11z"/>
<path d="M2125 1860 c-3 -5 -1 -10 4 -10 6 0 11 5 11 10 0 6 -2 10 -4 10 -3 0
-8 -4 -11 -10z"/>
<path d="M580 1760 c-9 -6 -10 -10 -3 -10 6 0 15 5 18 10 8 12 4 12 -15 0z"/>
<path d="M2617 1553 c-10 -9 -9 -23 1 -23 5 0 9 7 9 15 0 17 -1 18 -10 8z"/>
<path d="M1733 1528 c1 -7 -4 -12 -11 -10 -8 1 -11 -2 -7 -8 5 -8 11 -8 21 1
7 6 11 15 8 20 -8 13 -14 11 -11 -3z"/>
<path d="M1196 1455 c-9 -26 -7 -32 5 -12 6 10 9 21 6 23 -2 3 -7 -2 -11 -11z"/>
<path d="M2286 3094 c-10 -26 -7 -44 8 -44 14 0 26 21 26 46 0 19 -26 18 -34
-2z"/>
<path d="M769 3057 c-40 -27 -64 -83 -55 -131 7 -35 59 -96 83 -96 7 0 13 -5
13 -11 0 -15 -80 32 -97 58 -8 11 -15 37 -16 56 -3 42 -14 57 -27 37 -15 -23
-12 -78 6 -105 9 -14 12 -25 7 -25 -12 0 -38 29 -46 53 -10 28 -32 14 -30 -19
3 -33 44 -74 75 -74 13 0 18 -5 15 -14 -7 -19 34 -56 61 -56 34 0 26 28 -13
47 -19 9 -35 20 -35 25 0 11 1 11 53 -12 25 -11 52 -17 61 -14 17 7 22 34 6
34 -24 0 -7 15 20 17 96 7 140 102 89 193 -36 63 -108 79 -170 37z m111 -32
c40 -20 57 -73 36 -113 -21 -41 -67 -56 -111 -38 -62 26 -74 89 -26 137 33 32
58 36 101 14z"/>
<path d="M794 3005 c-51 -51 -14 -132 55 -121 79 12 76 116 -3 137 -22 6 -33
3 -52 -16z m60 -31 c23 -9 20 -42 -5 -49 -30 -10 -57 18 -39 39 14 18 21 19
44 10z"/>
<path d="M2640 3067 c-54 -27 -77 -130 -43 -188 17 -28 67 -59 95 -59 9 0 14
-9 14 -22 -1 -20 3 -23 29 -20 17 2 43 10 58 17 21 10 27 11 24 2 -2 -7 -16
-18 -30 -25 -26 -12 -34 -31 -21 -45 8 -8 65 21 82 42 7 9 11 29 9 46 -2 16 2
45 10 63 8 19 13 46 11 61 -4 34 -31 35 -33 1 -2 -28 -27 -81 -47 -98 -19 -16
-68 -33 -68 -24 0 4 13 13 30 19 34 13 70 66 70 106 0 99 -104 167 -190 124z
m119 -53 c39 -33 42 -80 7 -120 -19 -23 -32 -28 -66 -28 -35 0 -47 6 -66 30
-33 40 -31 79 5 115 37 37 79 38 120 3z"/>
<path d="M2673 3017 c-26 -12 -47 -58 -38 -86 16 -52 78 -68 115 -31 23 23 27
82 7 98 -25 21 -62 30 -84 19z m55 -49 c16 -16 -3 -48 -29 -48 -22 0 -34 22
-25 45 6 18 37 20 54 3z"/>
<path d="M1065 3030 c-11 -17 25 -64 38 -51 8 8 7 18 -3 36 -14 27 -25 31 -35
15z"/>
<path d="M2901 2901 c-33 -29 -40 -92 -12 -120 l21 -21 -22 0 c-35 0 -88 -37
-88 -60 0 -25 7 -25 45 0 17 11 37 20 45 20 8 0 -1 -8 -20 -18 -39 -19 -57
-59 -22 -50 16 4 18 2 14 -15 -4 -17 -1 -19 17 -14 19 4 20 3 10 -9 -8 -10 -9
-18 -2 -25 11 -11 17 -9 90 36 43 26 43 52 2 47 -4 -1 -15 8 -25 19 -18 20
-18 20 12 4 16 -8 34 -15 41 -15 25 0 63 24 63 40 0 27 -10 30 -39 12 l-26
-16 19 22 c10 12 16 28 12 37 -5 15 -10 14 -40 -4 -18 -12 -42 -21 -52 -21
-11 0 0 9 24 20 29 13 42 25 42 40 0 23 -6 24 -40 5 -34 -19 -47 -18 -59 4 -8
14 -6 25 8 42 11 14 16 31 12 42 -6 17 -8 17 -30 -2z m32 -245 c3 -8 -1 -17
-9 -20 -9 -4 -14 1 -14 14 0 23 15 27 23 6z"/>
<path d="M2930 2856 c-7 -10 -8 -21 -3 -31 9 -15 12 -14 33 3 13 11 20 24 16
30 -10 16 -31 15 -46 -2z"/>
<path d="M546 2835 c-3 -9 3 -23 14 -32 11 -10 20 -21 20 -26 0 -4 -9 1 -21
12 -22 20 -49 18 -49 -4 0 -7 11 -20 24 -28 17 -11 26 -29 31 -59 9 -63 24
-95 52 -114 41 -26 48 2 11 44 -29 34 -30 37 -23 104 7 64 5 71 -16 94 -26 28
-35 30 -43 9z"/>
<path d="M630 2771 c0 -17 -4 -33 -10 -36 -19 -12 -11 -71 15 -99 29 -31 45
-33 45 -6 0 11 -4 20 -8 20 -12 0 -33 50 -27 61 10 15 31 10 50 -11 23 -25 35
-25 35 0 0 10 -16 32 -35 47 -19 15 -35 34 -35 41 0 6 -7 12 -15 12 -10 0 -15
-10 -15 -29z"/>
<path d="M483 2754 c-3 -8 4 -25 16 -38 24 -25 26 -37 10 -53 -8 -8 -21 -8
-49 2 -34 12 -39 12 -45 -3 -4 -11 0 -21 10 -27 46 -28 46 -30 -2 -30 -42 0
-48 -3 -51 -22 -3 -20 0 -21 31 -16 56 9 121 -26 143 -76 18 -40 40 -51 38
-18 -1 10 -2 23 -3 31 0 8 -13 28 -27 45 -33 40 -14 40 28 1 37 -36 38 -36 38
-9 0 11 -14 34 -30 51 -23 23 -37 29 -57 25 -26 -5 -26 -5 -6 12 27 22 34 46
22 78 -8 23 -44 63 -56 63 -2 0 -6 -7 -10 -16z"/>
<path d="M454 2716 c-9 -24 3 -46 26 -46 26 0 26 22 0 45 -18 16 -20 16 -26 1z"/>
<path d="M660 2692 c0 -11 8 -27 19 -36 15 -14 19 -15 24 -3 6 16 -18 57 -34
57 -5 0 -9 -8 -9 -18z"/>
<path d="M3055 2664 c-35 -18 -45 -31 -45 -62 0 -13 -11 -38 -24 -55 -29 -38
-42 -82 -27 -91 6 -4 21 10 34 31 41 65 63 78 123 77 44 0 54 3 54 17 0 15
-51 43 -62 35 -1 -2 -19 -6 -38 -10 -31 -6 -33 -5 -20 8 8 9 26 17 40 19 16 3
25 10 25 23 0 25 -23 28 -60 8z"/>
<path d="M2941 2584 c-22 -28 -26 -46 -14 -57 10 -11 63 44 63 65 0 26 -25 22
-49 -8z"/>
<path d="M363 2540 c-51 -31 -66 -62 -61 -126 6 -73 36 -105 105 -111 60 -5
108 22 129 72 19 46 18 61 -6 111 -34 69 -105 92 -167 54z m92 -34 c93 -39 63
-166 -40 -166 -32 0 -85 49 -85 79 0 35 22 69 54 85 38 19 30 19 71 2z"/>
<path d="M378 2483 c-37 -44 -31 -96 13 -118 70 -37 134 54 79 113 -25 27 -71
29 -92 5z m72 -42 c14 -28 -13 -55 -41 -41 -24 13 -25 36 -1 49 24 15 30 14
42 -8z"/>
<path d="M3063 2541 c-40 -25 -59 -55 -67 -106 -8 -49 8 -82 53 -112 21 -14
28 -23 17 -23 -9 0 -16 -8 -16 -20 0 -16 9 -21 43 -27 l42 -7 -32 -8 c-54 -14
-36 -44 23 -39 48 4 53 -25 9 -50 -36 -21 -43 -33 -25 -44 5 -3 7 -12 4 -20
-4 -8 1 -18 10 -21 13 -5 14 -9 5 -21 -19 -22 2 -36 36 -23 36 14 52 35 59 82
6 37 37 71 77 83 23 8 26 45 3 45 -25 0 -82 -39 -89 -60 -11 -34 -46 -70 -68
-70 -18 1 -17 3 9 14 63 27 59 105 -6 129 -13 5 -13 5 0 6 8 0 24 -6 34 -14
36 -27 95 -15 115 23 5 10 6 24 1 32 -6 10 -13 9 -35 -9 -43 -33 -62 -26 -26
10 35 34 49 75 32 92 -6 6 -12 9 -13 6 -2 -2 -10 -17 -19 -34 -21 -37 -73 -65
-119 -64 l-35 1 42 8 c58 12 80 26 98 60 28 55 15 130 -32 172 -31 28 -93 32
-130 9z m118 -57 c31 -33 31 -87 1 -117 -32 -31 -108 -30 -134 3 -36 44 -19
112 34 134 39 17 71 10 99 -20z"/>
<path d="M3071 2474 c-21 -27 -27 -69 -13 -90 17 -25 53 -36 82 -24 37 15 52
50 39 90 -20 55 -74 67 -108 24z m69 -29 c17 -21 5 -45 -24 -45 -31 0 -43 30
-20 47 23 17 29 16 44 -2z"/>
<path d="M267 2373 c-15 -15 -5 -44 26 -75 25 -26 57 -77 57 -91 0 -7 -46 -5
-55 2 -10 9 -39 14 -62 12 -7 0 -13 -11 -13 -24 0 -13 -5 -28 -11 -34 -8 -8
-8 -13 1 -18 8 -5 6 -11 -6 -20 -10 -7 -15 -19 -11 -28 14 -36 127 7 127 49 0
7 9 16 20 19 11 3 20 12 20 20 0 9 9 11 33 6 45 -10 67 -3 67 20 0 17 -5 19
-29 16 -18 -3 -37 1 -48 10 -17 13 -16 14 11 10 45 -7 96 11 96 33 0 22 -8 24
-43 11 -49 -19 -157 34 -157 76 0 14 -12 17 -23 6z m12 -202 c19 -12 1 -36
-32 -45 -21 -5 -21 -4 3 14 21 17 23 21 10 30 -19 12 0 13 19 1z"/>
<path d="M240 2281 c0 -19 43 -61 62 -61 24 0 19 34 -8 56 -35 29 -54 30 -54
5z"/>
<path d="M3097 2183 c-4 -3 -7 -12 -7 -20 0 -20 38 -15 50 7 9 17 8 20 -13 20
-13 0 -27 -3 -30 -7z"/>
<path d="M3270 2151 c-20 -17 -31 -36 -32 -56 -1 -16 -6 -36 -11 -42 -5 -7 -7
-22 -4 -32 3 -14 0 -19 -13 -16 -20 4 -80 -30 -80 -44 0 -19 20 -21 51 -6 22
12 34 14 42 6 8 -8 6 -11 -5 -11 -24 0 -78 -49 -78 -71 0 -24 12 -24 35 1 22
25 77 43 112 37 39 -7 63 -18 63 -28 0 -5 7 -9 15 -9 23 0 18 38 -7 54 -13 8
-36 18 -53 22 -59 15 -79 79 -21 70 31 -5 66 14 66 36 0 10 -5 18 -11 18 -8 0
-7 5 1 15 19 23 -1 40 -29 26 -23 -13 -28 -37 -8 -44 6 -3 2 -6 -10 -6 -39 -2
-28 32 19 62 28 17 29 44 3 44 -8 0 -28 -12 -45 -26z"/>
<path d="M373 2163 c-13 -2 -32 -18 -44 -34 -26 -37 -68 -59 -114 -59 -35 0
-46 -15 -24 -37 15 -15 85 0 120 27 28 20 65 27 98 19 25 -7 23 27 -1 39 -22
11 -22 11 5 6 23 -5 27 -3 27 15 0 12 -4 21 -9 21 -5 0 -15 2 -23 4 -7 2 -23
1 -35 -1z"/>
<path d="M352 2072 c-50 -8 -66 -87 -24 -118 15 -12 15 -12 -5 -8 -12 3 -24
17 -27 30 -4 14 -18 29 -33 35 -32 12 -82 3 -90 -16 -8 -23 6 -35 30 -26 12 5
31 5 42 1 17 -6 16 -8 -10 -14 -40 -10 -84 -43 -81 -61 4 -27 16 -29 40 -6 35
33 105 31 157 -3 35 -24 40 -25 46 -10 4 12 -3 25 -22 41 -23 20 -25 24 -9 23
55 -6 60 13 9 37 -51 24 -48 53 6 53 32 0 40 3 37 16 -4 20 -34 31 -66 26z"/>
<path d="M360 2007 c0 -18 24 -29 45 -20 23 8 12 28 -18 31 -18 2 -27 -1 -27
-11z"/>
<path d="M3277 1995 c-7 -17 -3 -20 45 -29 40 -7 57 6 38 29 -16 20 -76 20
-83 0z"/>
<path d="M3235 1899 c-121 -35 -128 -200 -10 -244 24 -10 48 -14 54 -10 6 3
11 1 11 -4 0 -23 -82 -2 -116 30 -29 27 -48 18 -32 -16 6 -13 28 -33 50 -44
25 -12 33 -21 24 -24 -7 -3 -26 1 -41 9 -51 26 -62 -5 -12 -37 30 -19 31 -20
5 -13 -15 3 -31 3 -37 0 -14 -9 -3 -34 17 -39 12 -3 10 -5 -5 -6 -32 -1 -28
-23 7 -43 32 -18 42 -58 15 -58 -12 0 -14 4 -5 20 8 15 6 21 -9 30 -30 16 -44
12 -38 -10 3 -11 1 -20 -4 -20 -5 0 -9 -7 -9 -15 0 -17 50 -45 80 -45 11 0 20
-4 20 -10 0 -5 7 -10 16 -10 13 0 15 7 10 31 -3 17 -6 42 -6 56 0 13 -11 35
-25 48 -13 14 -20 25 -16 25 17 0 43 -41 52 -81 12 -50 24 -68 58 -80 17 -7
27 -6 33 3 12 21 10 26 -19 37 l-28 10 30 -2 c24 -2 30 2 30 17 0 14 -10 22
-32 28 -18 5 -38 18 -44 31 -6 12 -23 34 -37 50 -14 15 -24 27 -21 28 36 6 46
11 59 27 9 10 29 22 45 26 44 11 75 34 75 56 0 23 -17 25 -44 5 -11 -8 -25
-15 -30 -15 -6 0 4 10 22 21 60 39 78 109 46 172 -21 40 -36 54 -69 67 -30 11
-29 11 -70 -1z m90 -62 c51 -43 26 -137 -40 -149 -28 -6 -74 12 -94 36 -8 9
-14 34 -13 54 3 73 90 109 147 59z"/>
<path d="M3233 1838 c-46 -22 -45 -114 2 -132 75 -29 131 59 75 119 -25 27
-42 30 -77 13z m67 -62 c0 -33 -46 -42 -64 -13 -9 15 -7 21 8 32 21 16 56 4
56 -19z"/>
<path d="M196 1874 c-51 -52 -60 -113 -25 -170 26 -42 49 -55 99 -56 71 -1
130 61 130 135 0 28 -8 46 -33 74 -29 31 -41 37 -88 41 -49 4 -57 1 -83 -24z
m123 -29 c73 -37 43 -155 -39 -155 -44 0 -70 16 -86 56 -13 30 -13 38 1 64 26
50 71 63 124 35z"/>
<path d="M232 1827 c-32 -36 -34 -45 -16 -82 19 -40 51 -53 86 -34 31 16 38
28 38 65 0 41 -19 64 -57 68 -23 3 -36 -2 -51 -17z m72 -44 c10 -24 -21 -46
-45 -32 -19 10 -25 30 -12 42 13 14 51 7 57 -10z"/>
<path d="M341 1659 c-62 -34 -110 -33 -146 1 -16 15 -24 17 -33 8 -24 -24 36
-77 90 -79 22 0 22 -1 3 -8 -19 -8 -28 -8 -65 1 -9 2 -15 -4 -15 -17 0 -46
100 -44 120 3 6 13 31 35 58 49 35 20 47 32 47 50 0 12 -1 23 -2 22 -2 0 -27
-14 -57 -30z"/>
<path d="M348 1594 c-33 -17 -37 -44 -7 -44 32 0 59 19 59 40 0 24 -15 25 -52
4z"/>
<path d="M3290 1577 c-33 -17 -47 -58 -32 -92 12 -27 67 -56 88 -48 18 7 4 43
-16 43 -25 0 -51 27 -44 45 4 8 11 15 16 15 6 0 8 -6 5 -14 -7 -17 11 -36 35
-36 11 0 18 7 18 20 0 18 -11 25 -33 21 -5 -1 -6 3 -2 9 4 6 14 9 23 8 11 -2
18 5 20 20 3 18 -1 22 -25 22 -15 0 -39 -6 -53 -13z"/>
<path d="M272 1521 c-3 -8 1 -19 9 -25 8 -6 25 -27 38 -46 22 -33 21 -32 -18
8 -22 23 -44 42 -48 43 -4 0 -16 2 -25 4 -22 4 -53 -19 -44 -33 4 -7 15 -12
24 -12 14 0 13 -2 -3 -13 -27 -20 -9 -40 30 -34 17 3 37 2 44 -2 7 -4 -4 -8
-25 -9 -62 -2 -70 -42 -10 -42 46 0 64 -22 38 -47 -10 -10 -27 -23 -37 -29
-22 -12 -12 -34 14 -34 27 0 71 49 71 79 0 15 -8 37 -17 51 l-17 24 24 -17
c14 -9 32 -17 42 -17 24 0 23 -12 -2 -28 -11 -7 -20 -20 -20 -28 0 -9 -18 -36
-40 -60 -40 -44 -52 -84 -25 -84 8 0 21 13 29 29 22 41 78 65 137 58 27 -3 51
-2 53 2 11 17 -33 42 -73 43 -22 0 -38 4 -35 9 3 5 21 9 40 9 27 0 34 4 34 20
0 16 -7 20 -37 21 -22 1 -30 3 -18 6 33 8 45 23 35 41 -14 28 -23 56 -21 69 1
6 -3 14 -8 17 -5 3 -7 15 -4 27 5 19 2 20 -62 17 -46 -2 -69 -7 -73 -17z m91
-42 c3 -13 1 -19 -6 -16 -15 5 -22 37 -9 37 5 0 12 -9 15 -21z m50 -66 c-7 -2
-19 -2 -25 0 -7 3 -2 5 12 5 14 0 19 -2 13 -5z"/>
<path d="M3083 1345 c-7 -21 -4 -23 40 -30 29 -5 39 -3 44 10 3 10 0 21 -8 26
-23 14 -69 10 -76 -6z"/>
<path d="M227 1343 c-12 -11 -7 -43 6 -43 22 0 51 26 43 38 -8 13 -39 16 -49
5z"/>
<path d="M3180 1315 c-8 -9 -29 -15 -55 -15 -57 0 -75 -8 -75 -32 0 -15 5 -19
20 -15 11 3 20 1 20 -4 0 -5 -6 -9 -14 -9 -8 0 -31 -15 -50 -34 -27 -25 -36
-42 -36 -65 0 -46 23 -93 61 -125 28 -24 40 -27 76 -23 48 5 77 26 100 71 41
79 -4 164 -100 186 l-32 8 28 1 c43 1 94 -27 109 -60 7 -16 18 -31 25 -33 35
-14 20 55 -20 94 -23 23 -27 30 -14 30 9 0 26 -9 37 -20 23 -23 40 -19 40 9 0
41 -93 69 -120 36z m-12 -125 c17 -11 33 -29 33 -40 1 -11 2 -26 3 -32 5 -28
-25 -67 -58 -78 -28 -9 -40 -8 -65 5 -75 38 -68 133 12 157 35 10 40 9 75 -12z"/>
<path d="M3071 1172 c-31 -24 -31 -79 -1 -104 31 -25 66 -23 95 6 43 43 15
115 -46 116 -15 0 -37 -8 -48 -18z m69 -32 c11 -7 12 -14 4 -27 -15 -24 -29
-26 -48 -7 -29 28 8 57 44 34z"/>
<path d="M363 1236 c-52 -24 -82 -105 -59 -160 42 -98 164 -115 217 -30 39 63
33 128 -16 174 -30 28 -98 36 -142 16z m100 -38 c50 -26 62 -86 27 -131 -40
-51 -116 -44 -146 15 -21 41 -17 66 15 99 31 31 67 37 104 17z"/>
<path d="M374 1175 c-29 -30 -31 -64 -3 -99 41 -52 119 -21 119 47 0 63 -72
96 -116 52z m76 -40 c15 -19 -3 -45 -31 -45 -19 0 -35 33 -24 50 9 15 41 12
55 -5z"/>
<path d="M545 1058 c-25 -53 -70 -81 -131 -80 -36 1 -44 -2 -44 -17 0 -26 45
-35 105 -21 6 2 24 -1 42 -5 38 -9 35 -28 -8 -50 -34 -18 -51 -46 -39 -65 7
-12 13 -11 33 8 13 12 28 22 34 22 22 0 24 -34 3 -63 -34 -45 -12 -77 26 -36
19 21 22 63 11 145 -5 35 -3 45 18 64 26 24 34 60 14 60 -6 0 -20 -11 -31 -25
-11 -14 -27 -25 -35 -25 -14 0 -13 4 5 23 31 33 43 72 29 91 -11 15 -15 11
-32 -26z"/>
<path d="M2957 1084 c-8 -8 9 -51 33 -82 11 -13 20 -36 20 -51 0 -14 4 -31 8
-37 14 -20 57 -44 80 -44 34 0 27 42 -8 47 -14 2 -32 11 -40 19 -14 15 -13 15
10 8 36 -11 93 -5 109 10 22 23 5 33 -47 28 -41 -4 -52 0 -80 23 -18 15 -39
40 -48 56 -14 28 -25 35 -37 23z"/>
<path d="M2920 1012 c0 -9 9 -23 20 -30 22 -14 27 -48 8 -55 -7 -2 -26 2 -42
10 -19 10 -32 11 -38 5 -14 -14 -1 -32 36 -48 22 -9 26 -13 11 -13 -11 0 -29
6 -39 14 -38 28 -50 8 -18 -29 17 -19 17 -19 -8 -3 -32 22 -40 21 -40 -3 0
-25 43 -54 73 -47 12 2 39 12 60 21 20 9 37 14 37 12 0 -4 -72 -39 -102 -49
-10 -4 -18 -11 -18 -17 0 -6 8 -14 18 -17 9 -4 29 -20 44 -36 29 -30 64 -33
62 -4 -1 10 5 17 17 17 26 0 24 29 -3 40 -14 5 -17 9 -7 9 8 1 20 -4 26 -10 6
-6 16 -8 22 -5 21 13 11 38 -19 49 -16 6 -30 15 -30 19 0 5 17 1 37 -7 42 -18
66 -13 57 10 -8 20 -73 48 -96 41 -22 -5 -23 7 -3 24 18 15 19 43 3 73 -23 43
-68 63 -68 29z m45 -247 c0 -20 -2 -22 -14 -11 -7 8 -10 19 -7 25 12 18 21 12
21 -14z"/>
<path d="M2895 980 c-9 -15 14 -40 37 -40 19 0 19 2 6 22 -18 26 -34 33 -43
18z"/>
<path d="M610 933 c-17 -22 -20 -34 -14 -63 11 -54 6 -92 -16 -122 -24 -33
-26 -61 -4 -56 30 6 57 55 62 113 4 44 10 60 29 75 16 13 23 25 19 36 -6 15
-9 15 -34 -1 l-27 -18 23 25 c12 13 19 28 15 31 -13 14 -32 6 -53 -20z"/>
<path d="M453 926 c-32 -10 -45 -38 -23 -51 12 -7 80 21 80 33 0 20 -25 28
-57 18z"/>
<path d="M672 867 c-25 -27 -28 -65 -7 -93 16 -21 19 -35 8 -33 -23 4 -35 -4
-53 -33 -11 -18 -20 -41 -20 -50 0 -27 27 -21 42 9 15 31 47 48 33 17 -5 -11
-9 -39 -9 -64 -1 -34 3 -45 14 -45 10 0 15 11 16 32 0 18 6 43 13 57 12 22 68
56 114 70 9 3 17 12 17 21 0 19 -46 20 -80 0 -14 -8 -32 -14 -40 -14 -8 0 -1
6 15 13 40 17 62 43 47 58 -7 7 -17 6 -33 -6 -49 -34 -84 -7 -48 37 36 47 11
67 -29 24z"/>
<path d="M715 840 c-14 -15 -16 -23 -7 -32 15 -15 42 7 42 33 0 25 -12 24 -35
-1z"/>
<path d="M504 815 c-13 -20 -14 -29 -5 -38 10 -9 16 -8 27 7 8 11 14 25 14 32
0 25 -19 24 -36 -1z"/>
<path d="M2764 815 c-7 -18 3 -35 20 -35 7 0 21 -9 31 -20 21 -23 8 -27 -21
-5 -10 8 -36 15 -58 15 -36 0 -38 -1 -32 -26 4 -16 3 -23 -3 -20 -16 10 -76
-19 -99 -49 -40 -51 -24 -152 30 -189 13 -9 43 -16 69 -16 136 0 179 185 56
241 -38 17 -39 19 -15 19 42 0 88 -47 103 -105 7 -28 16 -50 20 -50 18 0 22
43 8 80 -8 22 -14 57 -13 78 1 28 -5 43 -25 61 -32 30 -64 39 -71 21z m6 -163
c31 -38 26 -85 -11 -116 -58 -49 -134 -20 -146 56 -5 31 -1 41 22 62 44 41
102 40 135 -2z"/>
<path d="M2668 663 c-22 -6 -41 -54 -32 -87 20 -81 134 -60 134 24 0 50 -45
78 -102 63z m61 -52 c13 -23 -8 -45 -36 -39 -22 4 -30 38 -11 49 21 14 37 10
47 -10z"/>
<path d="M806 719 c-41 -11 -85 -57 -92 -95 -14 -77 46 -154 122 -154 26 0 35
-3 25 -9 -17 -11 -7 -41 13 -41 24 0 60 17 84 39 16 16 22 18 22 7 0 -16 -26
-46 -41 -46 -5 0 -9 -9 -9 -20 0 -28 31 -26 60 5 15 16 22 35 21 57 0 18 -1
63 0 100 0 39 -4 69 -11 73 -16 10 -21 2 -25 -44 -6 -55 -29 -98 -65 -116 -40
-20 -38 -11 5 26 40 36 53 83 36 138 -20 67 -77 99 -145 80z m110 -84 c41 -98
-73 -166 -150 -89 -20 20 -21 73 -1 102 36 51 127 44 151 -13z"/>
<path d="M790 648 c-41 -44 -18 -111 42 -122 60 -10 95 77 51 127 -22 24 -68
22 -93 -5z m70 -33 c16 -19 6 -45 -18 -45 -31 0 -46 25 -27 44 20 20 29 20 45
1z"/>
<path d="M2870 720 c0 -20 34 -80 46 -80 21 0 23 27 3 59 -17 29 -49 43 -49
21z"/>
<path d="M2533 625 c-3 -9 -3 -39 -1 -67 l5 -52 -18 23 c-11 13 -19 32 -19 42
0 10 -7 19 -15 19 -22 0 -19 -48 5 -87 11 -18 25 -33 32 -33 7 0 2 -6 -12 -13
-35 -18 -50 -52 -39 -90 11 -40 26 -54 39 -41 8 8 7 20 0 39 -6 16 -9 34 -6
42 8 21 53 15 70 -8 9 -14 21 -19 31 -15 16 6 16 8 -1 34 -9 15 -25 32 -33 39
-9 7 -12 13 -8 13 5 0 23 -11 41 -25 37 -28 71 -32 79 -11 4 10 -8 22 -38 36
-50 24 -87 76 -85 117 3 42 1 53 -10 53 -6 0 -13 -7 -17 -15z"/>
<path d="M1030 555 c-6 -20 -9 -43 -6 -52 6 -15 8 -15 22 -1 19 18 24 79 7 85
-6 2 -16 -12 -23 -32z"/>
<path d="M1081 529 c-12 -19 -21 -38 -21 -43 0 -5 -7 -14 -17 -21 -24 -18 -10
-49 16 -35 11 5 22 6 25 1 3 -5 -8 -11 -24 -14 -32 -7 -65 -49 -56 -72 7 -19
31 -10 44 18 10 20 11 19 9 -12 -2 -38 18 -53 28 -22 7 24 32 51 46 51 6 0 -1
-15 -14 -32 -25 -33 -26 -58 -3 -58 7 0 18 11 24 25 23 50 74 25 65 -32 -5
-30 -3 -35 13 -31 15 2 20 13 22 47 4 51 -17 81 -57 81 l-26 0 31 19 c36 22
68 81 53 96 -7 7 -20 -2 -41 -27 -16 -21 -34 -38 -39 -38 -4 0 3 11 16 25 24
24 34 65 16 65 -5 0 -18 -11 -29 -25 -11 -14 -23 -25 -27 -25 -5 0 0 9 10 20
11 12 15 26 10 37 -6 17 -8 16 -25 -5 -11 -13 -16 -30 -13 -37 3 -8 0 -15 -6
-15 -14 0 -14 13 1 45 8 19 8 29 0 37 -8 8 -16 2 -31 -23z m52 -106 c-7 -2
-19 -2 -25 0 -7 3 -2 5 12 5 14 0 19 -2 13 -5z"/>
<path d="M2420 545 c0 -8 5 -25 11 -39 14 -30 6 -65 -22 -97 -12 -13 -25 -34
-29 -46 -12 -29 3 -77 24 -81 16 -3 17 1 12 40 l-7 43 16 -33 c15 -35 43 -39
36 -6 -5 26 -3 80 4 134 4 25 2 57 -4 73 -11 28 -41 38 -41 12z"/>
<path d="M2383 493 c2 -38 -1 -48 -16 -51 -12 -2 -21 6 -28 28 -6 17 -16 29
-23 27 -14 -5 -8 -55 9 -80 8 -11 11 -25 9 -32 -3 -6 2 -18 11 -25 9 -8 15 -9
15 -2 0 6 14 27 31 47 34 38 43 91 20 119 -22 27 -29 18 -28 -31z"/>
<path d="M2345 510 c-7 -12 5 -60 15 -60 15 0 22 20 16 46 -7 25 -20 31 -31
14z"/>
<path d="M1251 454 c-24 -31 -28 -86 -7 -103 9 -7 14 -29 14 -52 0 -42 26 -94
43 -83 6 3 8 16 4 28 -15 52 -15 73 0 113 9 24 20 43 24 43 14 0 51 41 46 51
-12 18 -36 8 -75 -32 -42 -43 -56 -33 -20 14 11 14 20 30 20 36 0 20 -28 11
-49 -15z"/>
<path d="M2244 466 c-7 -17 35 -78 50 -73 17 6 16 21 -4 55 -21 34 -37 41 -46
18z"/>
<path d="M2170 446 c0 -7 16 -30 35 -50 41 -44 53 -92 32 -133 -22 -42 -5 -68
23 -34 19 22 24 41 22 89 -1 12 3 22 7 22 12 0 21 -26 21 -61 0 -34 25 -40 35
-8 15 47 -20 109 -62 109 -12 0 -23 4 -23 8 0 5 -14 23 -31 40 -33 33 -59 42
-59 18z"/>
<path d="M1400 432 c-56 -25 -90 -75 -90 -135 0 -45 47 -102 96 -116 36 -10
97 8 127 38 30 30 34 116 7 159 -29 47 -97 73 -140 54z m103 -74 c24 -25 28
-36 23 -62 -7 -38 -48 -76 -82 -76 -32 0 -80 25 -88 45 -12 32 -6 73 14 98 36
45 88 43 133 -5z"/>
<path d="M1403 372 c-26 -16 -42 -63 -31 -92 20 -58 104 -58 128 0 24 59 -45
125 -97 92z m57 -47 c16 -19 6 -45 -18 -45 -28 0 -43 20 -31 42 12 22 32 23
49 3z"/>
<path d="M2053 430 c-35 -15 -73 -79 -73 -126 0 -115 136 -170 212 -85 70 79
24 199 -82 215 -19 3 -45 1 -57 -4z m76 -40 c22 0 61 -55 61 -85 0 -41 -47
-85 -90 -85 -44 0 -83 39 -83 83 0 52 52 104 91 91 8 -2 17 -4 21 -4z"/>
<path d="M2057 363 c-8 -10 -19 -30 -22 -45 -9 -37 43 -93 77 -83 57 17 75 79
33 120 -28 29 -65 32 -88 8z m68 -54 c0 -17 -6 -25 -23 -27 -30 -5 -42 26 -17
45 26 18 40 12 40 -18z"/>
<path d="M1550 397 c0 -7 7 -22 15 -33 8 -10 14 -37 15 -59 0 -36 -10 -59 -52
-117 -7 -9 -9 -20 -6 -23 15 -15 50 9 74 51 14 24 30 44 34 44 34 0 53 78 30
121 -18 33 -31 21 -28 -26 3 -47 -13 -64 -19 -19 -2 14 -11 37 -20 50 -16 26
-43 32 -43 11z"/>
<path d="M1944 375 c-7 -19 -14 -42 -14 -51 0 -9 -11 -25 -25 -36 -32 -25 -34
-84 -6 -119 29 -35 47 -13 25 30 -12 23 -13 36 -5 44 7 7 12 5 17 -9 9 -26 55
-74 70 -74 27 0 24 22 -5 49 -47 44 -50 75 -14 184 11 34 -28 18 -43 -18z"/>
<path d="M2520 396 c0 -25 12 -46 25 -46 18 0 24 21 13 43 -10 20 -38 23 -38
3z"/>
<path d="M1706 393 c-3 -3 -6 -22 -6 -40 0 -34 38 -83 65 -83 20 0 57 -47 64
-82 4 -19 13 -33 21 -33 23 0 17 68 -10 105 -20 28 -21 31 -4 22 42 -22 88 22
82 80 -4 38 -28 51 -28 16 0 -61 -55 -76 -66 -18 -4 17 -11 33 -15 36 -16 10
-23 -28 -12 -69 9 -34 9 -37 -4 -25 -8 9 -15 30 -17 48 -3 45 -23 49 -35 8
l-9 -33 -1 32 c-1 32 -12 48 -25 36z"/>
<path d="M1842 369 c2 -19 8 -33 13 -31 15 3 12 55 -3 60 -10 3 -13 -5 -10
-29z"/>
<path d="M1150 304 c-8 -21 -8 -29 2 -35 15 -10 40 18 36 40 -5 26 -28 23 -38
-5z"/>
<path d="M1678 293 c-7 -13 -1 -120 6 -132 14 -23 26 -10 26 29 0 32 4 40 19
40 22 0 36 -16 45 -52 8 -36 36 -37 36 -2 0 39 -30 82 -61 89 -15 4 -33 13
-40 21 -13 15 -26 18 -31 7z"/>
<path d="M1615 214 c-19 -45 -19 -50 1 -58 11 -4 19 4 30 29 18 44 18 65 -1
65 -8 0 -22 -16 -30 -36z"/>
<path d="M1724 205 c-8 -19 5 -46 24 -53 17 -5 15 43 -3 58 -12 10 -16 9 -21
-5z"/>
</g>
</svg>
