<?xml version="1.0" encoding="utf-8"?>
<!-- Generator: Adobe Illustrator 18.1.0, SVG Export Plug-In . SVG Version: 6.00 Build 0)  -->
<svg version="1.1" id="Layer_1" xmlns="http://www.w3.org/2000/svg" xmlns:xlink="http://www.w3.org/1999/xlink" x="0px" y="0px"
	 viewBox="0 0 501 100" enable-background="new 0 0 501 100" xml:space="preserve">
<g>
	<g>
		<g>
			<path fill="#606060" d="M98,50L83,23H28.769C25.583,23,23,25.59,23,28.786v42.428C23,74.41,25.583,77,28.769,77H83L98,50z"/>
			<path fill="#BB0E3D" d="M96.501,25.815C95.446,24.069,93.541,23,91.486,23H87l15.201,27L87,77h4.486
				c2.055,0,3.96-1.069,5.015-2.815L110,50L96.501,25.815z"/>
		</g>
		<g>
			<rect x="55" y="38" fill="#FFFFFF" width="4" height="24"/>
			<polygon fill="#FFFFFF" points="47,38 47,55.6 36,38 32,38 32,62 36,62 36,44.4 47,62 51,62 51,38 			"/>
			<polygon fill="#FFFFFF" points="78,38 78,48 67,48 67,38 63,38 63,62 67,62 67,52 78,52 78,62 82,62 82,38 			"/>
		</g>
	</g>
	<g>
		<g>
			<path fill="#BB0E3D" d="M129.187,25.835v11.844h-3.276V25.835h-4.158V23h11.592v2.835H129.187z"/>
			<path fill="#BB0E3D" d="M144.852,23h3.276v14.679h-3.276v-5.775h-5.838v5.775h-3.276V23h3.276v6.132h5.838V23z"/>
			<path fill="#BB0E3D" d="M162.324,23v2.919h-7.308v3.023h6.573v2.793h-6.573v3.045h7.539v2.898H151.74V23H162.324z"/>
			<path fill="#BB0E3D" d="M177.759,34.78c1.61,0,2.926-0.637,3.948-1.91l2.1,2.162c-1.667,1.877-3.63,2.814-5.891,2.814
				c-2.261,0-4.124-0.714-5.586-2.142c-1.463-1.429-2.195-3.23-2.195-5.408c0-2.177,0.746-3.993,2.237-5.449
				c1.491-1.456,3.314-2.184,5.47-2.184c2.408,0,4.424,0.917,6.048,2.751l-2.037,2.31c-1.036-1.288-2.324-1.932-3.864-1.932
				c-1.232,0-2.286,0.402-3.16,1.207c-0.875,0.806-1.312,1.891-1.312,3.255c0,1.365,0.413,2.461,1.239,3.287
				S176.583,34.78,177.759,34.78z"/>
			<path fill="#BB0E3D" d="M196.743,37.679l-1.365-3.171h-6.153l-1.365,3.171h-3.486L190.716,23h3.171l6.342,14.679H196.743z
				 M192.312,27.368l-1.848,4.263h3.675L192.312,27.368z"/>
			<path fill="#BB0E3D" d="M212.199,23h3.276v14.679h-3.276l-6.993-9.198v9.198h-3.276V23h3.066l7.203,9.45V23z"/>
			<path fill="#BB0E3D" d="M225.828,34.78c1.61,0,2.926-0.637,3.948-1.91l2.1,2.162c-1.667,1.877-3.63,2.814-5.891,2.814
				c-2.261,0-4.124-0.714-5.586-2.142c-1.463-1.429-2.195-3.23-2.195-5.408c0-2.177,0.746-3.993,2.237-5.449
				c1.491-1.456,3.314-2.184,5.47-2.184c2.408,0,4.424,0.917,6.048,2.751l-2.037,2.31c-1.036-1.288-2.324-1.932-3.864-1.932
				c-1.232,0-2.286,0.402-3.16,1.207c-0.875,0.806-1.312,1.891-1.312,3.255c0,1.365,0.413,2.461,1.239,3.287
				S224.652,34.78,225.828,34.78z"/>
			<path fill="#BB0E3D" d="M245.043,23v2.919h-7.308v3.023h6.573v2.793h-6.573v3.045h7.539v2.898h-10.815V23H245.043z"/>
			<path fill="#BB0E3D" d="M260.1,27.872c0,2.352-0.931,3.871-2.793,4.557l3.717,5.25h-4.032l-3.255-4.683h-2.268v4.683h-3.276V23
				h5.565c2.282,0,3.909,0.385,4.882,1.154C259.613,24.925,260.1,26.164,260.1,27.872z M256.152,29.614
				c0.406-0.363,0.609-0.941,0.609-1.732c0-0.79-0.21-1.333-0.63-1.627s-1.155-0.441-2.205-0.441h-2.457v4.348h2.394
				C254.982,30.161,255.746,29.978,256.152,29.614z"/>
			<path fill="#BB0E3D" d="M278.537,30.203h3.297v5.208c-1.457,1.624-3.473,2.436-6.048,2.436c-2.156,0-3.966-0.714-5.428-2.142
				c-1.463-1.429-2.195-3.23-2.195-5.408c0-2.177,0.746-3.993,2.237-5.449c1.491-1.456,3.29-2.184,5.397-2.184
				c2.107,0,3.938,0.692,5.491,2.079l-1.701,2.457c-0.658-0.574-1.264-0.97-1.816-1.187c-0.553-0.218-1.152-0.326-1.796-0.326
				c-1.246,0-2.296,0.424-3.15,1.271c-0.854,0.848-1.281,1.964-1.281,3.35s0.409,2.496,1.229,3.328
				c0.819,0.834,1.795,1.25,2.929,1.25c1.134,0,2.079-0.217,2.835-0.651V30.203z"/>
			<path fill="#BB0E3D" d="M295.337,23v2.919h-7.308v3.023h6.573v2.793h-6.573v3.045h7.539v2.898h-10.815V23H295.337z"/>
			<path fill="#BB0E3D" d="M308.756,23h3.276v14.679h-3.276l-6.993-9.198v9.198h-3.276V23h3.066l7.203,9.45V23z"/>
			<path fill="#BB0E3D" d="M327.992,35.652c-1.484,1.449-3.311,2.174-5.481,2.174s-3.997-0.725-5.481-2.174
				s-2.226-3.252-2.226-5.407c0-2.156,0.742-3.959,2.226-5.408c1.484-1.448,3.311-2.173,5.481-2.173s3.997,0.725,5.481,2.173
				c1.484,1.449,2.226,3.252,2.226,5.408C330.218,32.4,329.476,34.203,327.992,35.652z M326.879,30.255
				c0-1.309-0.42-2.425-1.26-3.35c-0.84-0.924-1.873-1.386-3.097-1.386c-1.225,0-2.258,0.462-3.098,1.386
				c-0.84,0.925-1.26,2.041-1.26,3.35c0,1.31,0.42,2.423,1.26,3.339c0.84,0.918,1.873,1.376,3.098,1.376
				c1.225,0,2.257-0.458,3.097-1.376C326.459,32.678,326.879,31.564,326.879,30.255z"/>
			<path fill="#BB0E3D" d="M346.136,28.438l-3.969,8.022h-1.953l-3.948-8.022v9.24h-3.276V23h4.431l3.78,8.063L345.001,23h4.41
				v14.679h-3.276V28.438z"/>
			<path fill="#BB0E3D" d="M363.607,23v2.919h-7.308v3.023h6.573v2.793h-6.573v3.045h7.539v2.898h-10.815V23H363.607z"/>
			<path fill="#BB0E3D" d="M382.759,37.679l-1.365-3.171h-6.153l-1.365,3.171h-3.486L376.732,23h3.171l6.342,14.679H382.759z
				 M378.328,27.368l-1.848,4.263h3.675L378.328,27.368z"/>
			<path fill="#BB0E3D" d="M393.091,25.835v11.844h-3.276V25.835h-4.158V23h11.592v2.835H393.091z"/>
			<path fill="#BB0E3D" d="M399.643,37.679V23h3.276v11.76h6.258v2.919H399.643z"/>
			<path fill="#BB0E3D" d="M422.029,37.679l-1.364-3.171h-6.153l-1.365,3.171h-3.486L416.002,23h3.171l6.342,14.679H422.029z
				 M417.598,27.368l-1.848,4.263h3.675L417.598,27.368z"/>
			<path fill="#BB0E3D" d="M430.544,25.93c-0.314,0.259-0.473,0.602-0.473,1.028c0,0.428,0.192,0.767,0.578,1.019
				c0.385,0.252,1.273,0.55,2.667,0.893c1.393,0.344,2.475,0.857,3.244,1.544c0.77,0.686,1.155,1.687,1.155,3.003
				c0,1.315-0.493,2.383-1.48,3.202s-2.286,1.229-3.896,1.229c-2.324,0-4.417-0.861-6.279-2.583l1.953-2.394
				c1.582,1.386,3.045,2.078,4.389,2.078c0.603,0,1.074-0.129,1.418-0.388c0.343-0.259,0.515-0.609,0.515-1.051
				c0-0.44-0.183-0.79-0.546-1.05c-0.364-0.259-1.086-0.521-2.163-0.787c-1.709-0.406-2.958-0.935-3.749-1.586
				c-0.791-0.65-1.187-1.673-1.187-3.065c0-1.394,0.501-2.468,1.502-3.224s2.25-1.134,3.748-1.134c0.98,0,1.96,0.168,2.94,0.504
				c0.979,0.336,1.834,0.812,2.562,1.428l-1.659,2.394c-1.273-0.966-2.59-1.448-3.947-1.448
				C431.291,25.541,430.86,25.67,430.544,25.93z"/>
		</g>
	</g>
	<g>
		<g>
			<path fill="#606060" d="M130.832,46.676h2.496v11.184h-2.496l-5.328-7.008v7.008h-2.496V46.676h2.336l5.488,7.199V46.676z"/>
			<path fill="#606060" d="M143.151,57.859h-2.256v-1.04c-0.619,0.778-1.384,1.168-2.296,1.168s-1.678-0.264-2.296-0.792
				c-0.619-0.528-0.928-1.232-0.928-2.112s0.32-1.538,0.96-1.976c0.64-0.438,1.515-0.656,2.624-0.656h1.792v-0.048
				c0-0.917-0.485-1.376-1.456-1.376c-0.416,0-0.856,0.083-1.32,0.248s-0.856,0.371-1.176,0.616l-1.072-1.552
				c1.13-0.821,2.421-1.232,3.872-1.232c1.045,0,1.898,0.262,2.56,0.784c0.661,0.522,0.992,1.35,0.992,2.479V57.859z
				 M140.735,54.579v-0.416h-1.504c-0.96,0-1.44,0.299-1.44,0.896c0,0.31,0.115,0.547,0.344,0.712
				c0.229,0.165,0.557,0.248,0.984,0.248c0.426,0,0.802-0.131,1.128-0.393C140.572,55.366,140.735,55.017,140.735,54.579z"/>
			<path fill="#606060" d="M148.111,50.979v3.855c0,0.331,0.085,0.59,0.256,0.776s0.374,0.28,0.608,0.28
				c0.448,0,0.827-0.203,1.136-0.608l0.896,1.68c-0.747,0.684-1.534,1.024-2.36,1.024c-0.827,0-1.525-0.271-2.096-0.816
				c-0.571-0.544-0.856-1.285-0.856-2.224v-3.968h-1.008v-1.729h1.008v-2.575h2.416v2.575h2.08v1.729H148.111z"/>
			<path fill="#606060" d="M152.487,48.155c-0.272-0.271-0.408-0.605-0.408-1s0.136-0.728,0.408-1c0.272-0.271,0.605-0.408,1-0.408
				s0.728,0.137,1,0.408c0.272,0.272,0.408,0.605,0.408,1s-0.136,0.729-0.408,1c-0.272,0.272-0.605,0.408-1,0.408
				S152.759,48.428,152.487,48.155z M154.687,57.859h-2.4v-8.608h2.4V57.859z"/>
			<path fill="#606060" d="M165.567,53.556c0,1.248-0.432,2.299-1.296,3.151c-0.864,0.854-1.95,1.28-3.256,1.28
				s-2.392-0.427-3.256-1.28c-0.864-0.853-1.296-1.903-1.296-3.151s0.432-2.302,1.296-3.16c0.864-0.858,1.949-1.288,3.256-1.288
				s2.392,0.43,3.256,1.288C165.135,51.254,165.567,52.308,165.567,53.556z M158.879,53.556c0,0.704,0.2,1.277,0.6,1.72
				c0.4,0.442,0.912,0.664,1.536,0.664s1.136-0.222,1.536-0.664s0.6-1.016,0.6-1.72s-0.2-1.28-0.6-1.729s-0.912-0.672-1.536-0.672
				s-1.136,0.224-1.536,0.672C159.079,52.275,158.879,52.852,158.879,53.556z"/>
			<path fill="#606060" d="M169.743,53.06v4.8h-2.4v-8.608h2.4v0.96c0.725-0.735,1.541-1.104,2.448-1.104s1.667,0.32,2.28,0.96
				c0.613,0.64,0.92,1.493,0.92,2.56v5.232h-2.4v-4.864c0-1.322-0.486-1.983-1.456-1.983c-0.48,0-0.899,0.173-1.256,0.52
				S169.743,52.388,169.743,53.06z"/>
			<path fill="#606060" d="M184.878,57.859h-2.256v-1.04c-0.619,0.778-1.384,1.168-2.296,1.168s-1.678-0.264-2.296-0.792
				c-0.619-0.528-0.928-1.232-0.928-2.112s0.32-1.538,0.96-1.976c0.64-0.438,1.515-0.656,2.624-0.656h1.792v-0.048
				c0-0.917-0.485-1.376-1.456-1.376c-0.416,0-0.856,0.083-1.32,0.248s-0.856,0.371-1.176,0.616l-1.072-1.552
				c1.13-0.821,2.421-1.232,3.872-1.232c1.045,0,1.898,0.262,2.56,0.784c0.661,0.522,0.992,1.35,0.992,2.479V57.859z
				 M182.462,54.579v-0.416h-1.504c-0.96,0-1.44,0.299-1.44,0.896c0,0.31,0.115,0.547,0.344,0.712
				c0.229,0.165,0.557,0.248,0.984,0.248c0.426,0,0.802-0.131,1.128-0.393C182.299,55.366,182.462,55.017,182.462,54.579z"/>
			<path fill="#606060" d="M189.47,57.859h-2.4V45.987h2.4V57.859z"/>
			<path fill="#606060" d="M201.342,55.651c1.226,0,2.229-0.485,3.008-1.456l1.6,1.648c-1.27,1.429-2.766,2.144-4.488,2.144
				s-3.141-0.544-4.256-1.632s-1.672-2.461-1.672-4.12c0-1.658,0.568-3.042,1.704-4.152c1.136-1.108,2.525-1.664,4.168-1.664
				c1.834,0,3.37,0.699,4.608,2.097l-1.552,1.76c-0.79-0.981-1.771-1.472-2.944-1.472c-0.939,0-1.742,0.307-2.408,0.92
				s-1,1.439-1,2.479s0.315,1.875,0.944,2.504C199.683,55.337,200.446,55.651,201.342,55.651z"/>
			<path fill="#606060" d="M214.894,57.859h-2.256v-1.04c-0.619,0.778-1.384,1.168-2.296,1.168s-1.678-0.264-2.296-0.792
				c-0.619-0.528-0.928-1.232-0.928-2.112s0.32-1.538,0.96-1.976c0.64-0.438,1.515-0.656,2.624-0.656h1.792v-0.048
				c0-0.917-0.485-1.376-1.456-1.376c-0.416,0-0.856,0.083-1.32,0.248s-0.856,0.371-1.176,0.616l-1.072-1.552
				c1.13-0.821,2.421-1.232,3.872-1.232c1.045,0,1.898,0.262,2.56,0.784c0.661,0.522,0.992,1.35,0.992,2.479V57.859z
				 M212.478,54.579v-0.416h-1.504c-0.96,0-1.44,0.299-1.44,0.896c0,0.31,0.115,0.547,0.344,0.712
				c0.229,0.165,0.557,0.248,0.984,0.248c0.426,0,0.802-0.131,1.128-0.393C212.314,55.366,212.478,55.017,212.478,54.579z"/>
			<path fill="#606060" d="M219.485,53.06v4.8h-2.4v-8.608h2.4v0.96c0.725-0.735,1.541-1.104,2.448-1.104s1.667,0.32,2.28,0.96
				c0.613,0.64,0.92,1.493,0.92,2.56v5.232h-2.4v-4.864c0-1.322-0.486-1.983-1.456-1.983c-0.48,0-0.899,0.173-1.256,0.52
				S219.485,52.388,219.485,53.06z"/>
			<path fill="#606060" d="M231.437,55.859c0.8,0,1.52-0.4,2.16-1.2l1.424,1.601c-1.11,1.151-2.31,1.728-3.6,1.728
				c-1.291,0-2.381-0.408-3.272-1.224c-0.891-0.816-1.336-1.883-1.336-3.2s0.45-2.39,1.352-3.216c0.901-0.827,1.97-1.24,3.208-1.24
				c0.618,0,1.245,0.128,1.88,0.384c0.634,0.256,1.192,0.635,1.672,1.136l-1.248,1.633c-0.277-0.331-0.616-0.587-1.016-0.769
				c-0.4-0.181-0.797-0.271-1.192-0.271c-0.629,0-1.17,0.205-1.624,0.615c-0.454,0.411-0.68,0.981-0.68,1.713
				c0,0.73,0.226,1.298,0.68,1.703C230.298,55.657,230.829,55.859,231.437,55.859z"/>
			<path fill="#606060" d="M244.076,56.611c-0.971,0.918-2.109,1.376-3.416,1.376s-2.387-0.402-3.24-1.208
				c-0.854-0.805-1.28-1.885-1.28-3.24c0-1.354,0.435-2.432,1.304-3.231c0.869-0.8,1.896-1.2,3.08-1.2s2.189,0.357,3.016,1.072
				c0.826,0.715,1.24,1.695,1.24,2.943v1.28h-6.272c0.075,0.47,0.32,0.854,0.736,1.152c0.416,0.299,0.885,0.447,1.408,0.447
				c0.843,0,1.536-0.282,2.08-0.848L244.076,56.611z M241.772,51.508c-0.331-0.277-0.733-0.416-1.208-0.416s-0.91,0.144-1.304,0.432
				s-0.624,0.678-0.688,1.168h3.776C242.295,52.18,242.103,51.785,241.772,51.508z"/>
			<path fill="#606060" d="M251.036,51.363c-0.715,0-1.248,0.254-1.6,0.76c-0.352,0.507-0.528,1.177-0.528,2.009v3.728h-2.4v-8.608
				h2.4v1.137c0.309-0.353,0.696-0.65,1.16-0.896c0.464-0.245,0.936-0.373,1.416-0.384l0.016,2.256H251.036z"/>
			<path fill="#606060" d="M257.548,46.676h2.496v11.184h-2.496V46.676z"/>
			<path fill="#606060" d="M264.876,53.06v4.8h-2.4v-8.608h2.4v0.96c0.725-0.735,1.541-1.104,2.448-1.104s1.667,0.32,2.28,0.96
				c0.613,0.64,0.92,1.493,0.92,2.56v5.232h-2.4v-4.864c0-1.322-0.486-1.983-1.456-1.983c-0.48,0-0.899,0.173-1.256,0.52
				S264.876,52.388,264.876,53.06z"/>
			<path fill="#606060" d="M279.18,55.18c0,0.848-0.312,1.527-0.936,2.04c-0.624,0.512-1.416,0.768-2.376,0.768
				c-0.64,0-1.307-0.114-2-0.344c-0.694-0.229-1.318-0.568-1.872-1.017l1.056-1.504c0.896,0.693,1.851,1.04,2.864,1.04
				c0.309,0,0.555-0.061,0.736-0.184s0.272-0.285,0.272-0.488c0-0.202-0.125-0.389-0.376-0.56s-0.613-0.331-1.088-0.48
				s-0.837-0.277-1.088-0.384c-0.251-0.106-0.536-0.262-0.856-0.464c-0.651-0.405-0.976-1.006-0.976-1.8
				c0-0.795,0.32-1.442,0.96-1.944c0.64-0.501,1.466-0.752,2.48-0.752c1.013,0,2.026,0.342,3.04,1.024l-0.896,1.6
				c-0.747-0.512-1.491-0.769-2.232-0.769c-0.742,0-1.112,0.203-1.112,0.608c0,0.224,0.117,0.4,0.352,0.528s0.624,0.277,1.168,0.448
				c0.544,0.17,0.931,0.301,1.16,0.392s0.504,0.231,0.824,0.424C278.881,53.727,279.18,54.331,279.18,55.18z"/>
			<path fill="#606060" d="M283.82,50.979v3.855c0,0.331,0.085,0.59,0.256,0.776s0.374,0.28,0.608,0.28
				c0.448,0,0.827-0.203,1.136-0.608l0.896,1.68c-0.747,0.684-1.534,1.024-2.36,1.024c-0.827,0-1.525-0.271-2.096-0.816
				c-0.571-0.544-0.856-1.285-0.856-2.224v-3.968h-1.008v-1.729h1.008v-2.575h2.416v2.575h2.08v1.729H283.82z"/>
			<path fill="#606060" d="M288.195,48.155c-0.272-0.271-0.408-0.605-0.408-1s0.136-0.728,0.408-1c0.272-0.271,0.605-0.408,1-0.408
				s0.728,0.137,1,0.408c0.272,0.272,0.408,0.605,0.408,1s-0.136,0.729-0.408,1c-0.272,0.272-0.605,0.408-1,0.408
				S288.467,48.428,288.195,48.155z M290.395,57.859h-2.4v-8.608h2.4V57.859z"/>
			<path fill="#606060" d="M295.531,50.979v3.855c0,0.331,0.085,0.59,0.256,0.776s0.374,0.28,0.608,0.28
				c0.448,0,0.827-0.203,1.136-0.608l0.896,1.68c-0.747,0.684-1.534,1.024-2.36,1.024c-0.827,0-1.525-0.271-2.096-0.816
				c-0.571-0.544-0.856-1.285-0.856-2.224v-3.968h-1.008v-1.729h1.008v-2.575h2.416v2.575h2.08v1.729H295.531z"/>
			<path fill="#606060" d="M305.259,53.892v-4.641h2.416v8.608h-2.416v-1.136c-0.598,0.843-1.368,1.264-2.312,1.264
				s-1.736-0.296-2.376-0.888s-0.96-1.47-0.96-2.632v-5.217h2.416v4.688c0,1.322,0.485,1.984,1.456,1.984
				c0.48,0,0.896-0.174,1.248-0.521S305.259,54.553,305.259,53.892z"/>
			<path fill="#606060" d="M312.811,50.979v3.855c0,0.331,0.085,0.59,0.256,0.776s0.374,0.28,0.608,0.28
				c0.448,0,0.827-0.203,1.136-0.608l0.896,1.68c-0.747,0.684-1.534,1.024-2.36,1.024c-0.827,0-1.525-0.271-2.096-0.816
				c-0.571-0.544-0.856-1.285-0.856-2.224v-3.968h-1.008v-1.729h1.008v-2.575h2.416v2.575h2.08v1.729H312.811z"/>
			<path fill="#606060" d="M324.443,56.611c-0.971,0.918-2.109,1.376-3.416,1.376s-2.387-0.402-3.24-1.208
				c-0.854-0.805-1.28-1.885-1.28-3.24c0-1.354,0.435-2.432,1.304-3.231c0.869-0.8,1.896-1.2,3.08-1.2s2.189,0.357,3.016,1.072
				c0.826,0.715,1.24,1.695,1.24,2.943v1.28h-6.272c0.075,0.47,0.32,0.854,0.736,1.152c0.416,0.299,0.885,0.447,1.408,0.447
				c0.843,0,1.536-0.282,2.08-0.848L324.443,56.611z M322.139,51.508c-0.331-0.277-0.733-0.416-1.208-0.416s-0.91,0.144-1.304,0.432
				s-0.624,0.678-0.688,1.168h3.776C322.662,52.18,322.47,51.785,322.139,51.508z"/>
			<path fill="#606060" d="M130.832,65.816h2.496V77h-2.496l-5.328-7.008V77h-2.496V65.816h2.336l5.488,7.199V65.816z"/>
			<path fill="#606060" d="M143.151,77h-2.256v-1.04c-0.619,0.778-1.384,1.168-2.296,1.168s-1.678-0.264-2.296-0.792
				c-0.619-0.528-0.928-1.232-0.928-2.112s0.32-1.538,0.96-1.976c0.64-0.438,1.515-0.656,2.624-0.656h1.792v-0.048
				c0-0.917-0.485-1.376-1.456-1.376c-0.416,0-0.856,0.083-1.32,0.248s-0.856,0.371-1.176,0.616l-1.072-1.552
				c1.13-0.821,2.421-1.232,3.872-1.232c1.045,0,1.898,0.262,2.56,0.784c0.661,0.522,0.992,1.35,0.992,2.479V77z M140.735,73.72
				v-0.416h-1.504c-0.96,0-1.44,0.299-1.44,0.896c0,0.31,0.115,0.547,0.344,0.712c0.229,0.165,0.557,0.248,0.984,0.248
				c0.426,0,0.802-0.131,1.128-0.393C140.572,74.507,140.735,74.157,140.735,73.72z"/>
			<path fill="#606060" d="M148.111,70.12v3.855c0,0.331,0.085,0.59,0.256,0.776s0.374,0.28,0.608,0.28
				c0.448,0,0.827-0.203,1.136-0.608l0.896,1.68c-0.747,0.684-1.534,1.024-2.36,1.024c-0.827,0-1.525-0.271-2.096-0.816
				c-0.571-0.544-0.856-1.285-0.856-2.224V70.12h-1.008v-1.729h1.008v-2.575h2.416v2.575h2.08v1.729H148.111z"/>
			<path fill="#606060" d="M152.487,67.296c-0.272-0.271-0.408-0.605-0.408-1s0.136-0.728,0.408-1c0.272-0.271,0.605-0.408,1-0.408
				s0.728,0.137,1,0.408c0.272,0.272,0.408,0.605,0.408,1s-0.136,0.729-0.408,1c-0.272,0.272-0.605,0.408-1,0.408
				S152.759,67.568,152.487,67.296z M154.687,77h-2.4v-8.608h2.4V77z"/>
			<path fill="#606060" d="M165.567,72.696c0,1.248-0.432,2.299-1.296,3.151c-0.864,0.854-1.95,1.28-3.256,1.28
				s-2.392-0.427-3.256-1.28c-0.864-0.853-1.296-1.903-1.296-3.151s0.432-2.302,1.296-3.16c0.864-0.858,1.949-1.288,3.256-1.288
				s2.392,0.43,3.256,1.288C165.135,70.395,165.567,71.448,165.567,72.696z M158.879,72.696c0,0.704,0.2,1.277,0.6,1.72
				c0.4,0.442,0.912,0.664,1.536,0.664s1.136-0.222,1.536-0.664s0.6-1.016,0.6-1.72s-0.2-1.28-0.6-1.729s-0.912-0.672-1.536-0.672
				s-1.136,0.224-1.536,0.672C159.079,71.416,158.879,71.992,158.879,72.696z"/>
			<path fill="#606060" d="M169.743,72.2V77h-2.4v-8.608h2.4v0.96c0.725-0.735,1.541-1.104,2.448-1.104s1.667,0.32,2.28,0.96
				c0.613,0.64,0.92,1.493,0.92,2.56V77h-2.4v-4.864c0-1.322-0.486-1.983-1.456-1.983c-0.48,0-0.899,0.173-1.256,0.52
				S169.743,71.528,169.743,72.2z"/>
			<path fill="#606060" d="M184.878,77h-2.256v-1.04c-0.619,0.778-1.384,1.168-2.296,1.168s-1.678-0.264-2.296-0.792
				c-0.619-0.528-0.928-1.232-0.928-2.112s0.32-1.538,0.96-1.976c0.64-0.438,1.515-0.656,2.624-0.656h1.792v-0.048
				c0-0.917-0.485-1.376-1.456-1.376c-0.416,0-0.856,0.083-1.32,0.248s-0.856,0.371-1.176,0.616l-1.072-1.552
				c1.13-0.821,2.421-1.232,3.872-1.232c1.045,0,1.898,0.262,2.56,0.784c0.661,0.522,0.992,1.35,0.992,2.479V77z M182.462,73.72
				v-0.416h-1.504c-0.96,0-1.44,0.299-1.44,0.896c0,0.31,0.115,0.547,0.344,0.712c0.229,0.165,0.557,0.248,0.984,0.248
				c0.426,0,0.802-0.131,1.128-0.393C182.299,74.507,182.462,74.157,182.462,73.72z"/>
			<path fill="#606060" d="M189.47,77h-2.4V65.128h2.4V77z"/>
			<path fill="#606060" d="M203.149,65.816h2.496V77h-2.496v-4.4h-4.448V77h-2.496V65.816h2.496v4.672h4.448V65.816z"/>
			<path fill="#606060" d="M213.709,73.032v-4.641h2.416V77h-2.416v-1.136c-0.598,0.843-1.368,1.264-2.312,1.264
				s-1.736-0.296-2.376-0.888s-0.96-1.47-0.96-2.632v-5.217h2.416v4.688c0,1.322,0.485,1.984,1.456,1.984
				c0.48,0,0.896-0.174,1.248-0.521S213.709,73.693,213.709,73.032z"/>
			<path fill="#606060" d="M226.301,72.36V77h-2.416v-4.704c0-0.683-0.104-1.184-0.312-1.504s-0.544-0.48-1.008-0.48
				c-0.464,0-0.875,0.174-1.232,0.521s-0.536,0.856-0.536,1.528V77h-2.4v-8.608h2.4v0.977c0.661-0.747,1.418-1.12,2.272-1.12
				c0.544,0,1.037,0.16,1.48,0.479c0.442,0.32,0.776,0.71,1,1.169c0.331-0.523,0.776-0.929,1.336-1.217s1.123-0.432,1.688-0.432
				c1.013,0,1.829,0.302,2.448,0.904s0.928,1.475,0.928,2.615V77h-2.416v-4.704c0-1.322-0.485-1.984-1.456-1.984
				c-0.48,0-0.896,0.174-1.248,0.521S226.301,71.689,226.301,72.36z"/>
			<path fill="#606060" d="M241.437,77h-2.256v-1.04c-0.619,0.778-1.384,1.168-2.296,1.168s-1.678-0.264-2.296-0.792
				c-0.619-0.528-0.928-1.232-0.928-2.112s0.32-1.538,0.96-1.976c0.64-0.438,1.515-0.656,2.624-0.656h1.792v-0.048
				c0-0.917-0.485-1.376-1.456-1.376c-0.416,0-0.856,0.083-1.32,0.248s-0.856,0.371-1.176,0.616l-1.072-1.552
				c1.13-0.821,2.421-1.232,3.872-1.232c1.045,0,1.898,0.262,2.56,0.784c0.661,0.522,0.992,1.35,0.992,2.479V77z M239.021,73.72
				v-0.416h-1.504c-0.96,0-1.44,0.299-1.44,0.896c0,0.31,0.115,0.547,0.344,0.712c0.229,0.165,0.557,0.248,0.984,0.248
				c0.426,0,0.802-0.131,1.128-0.393C238.858,74.507,239.021,74.157,239.021,73.72z"/>
			<path fill="#606060" d="M246.029,72.2V77h-2.4v-8.608h2.4v0.96c0.725-0.735,1.541-1.104,2.448-1.104s1.667,0.32,2.28,0.96
				c0.613,0.64,0.92,1.493,0.92,2.56V77h-2.4v-4.864c0-1.322-0.486-1.983-1.456-1.983c-0.48,0-0.899,0.173-1.256,0.52
				S246.029,71.528,246.029,72.2z"/>
			<path fill="#606060" d="M265.58,71.304h2.512v3.969c-1.109,1.237-2.646,1.855-4.608,1.855c-1.643,0-3.021-0.544-4.136-1.632
				c-1.115-1.088-1.672-2.461-1.672-4.12c0-1.658,0.568-3.042,1.704-4.152c1.136-1.108,2.506-1.664,4.112-1.664s3,0.528,4.184,1.584
				l-1.296,1.872c-0.501-0.437-0.963-0.738-1.384-0.903c-0.422-0.166-0.877-0.248-1.368-0.248c-0.95,0-1.75,0.322-2.4,0.968
				c-0.651,0.646-0.976,1.496-0.976,2.552c0,1.057,0.312,1.901,0.936,2.536s1.368,0.952,2.232,0.952c0.864,0,1.584-0.165,2.16-0.496
				V71.304z"/>
			<path fill="#606060" d="M277.532,75.752c-0.971,0.918-2.109,1.376-3.416,1.376s-2.387-0.402-3.24-1.208
				c-0.854-0.805-1.28-1.885-1.28-3.24c0-1.354,0.435-2.432,1.304-3.231c0.869-0.8,1.896-1.2,3.08-1.2s2.189,0.357,3.016,1.072
				c0.826,0.715,1.24,1.695,1.24,2.943v1.28h-6.272c0.075,0.47,0.32,0.854,0.736,1.152c0.416,0.299,0.885,0.447,1.408,0.447
				c0.843,0,1.536-0.282,2.08-0.848L277.532,75.752z M275.228,70.649c-0.331-0.277-0.733-0.416-1.208-0.416s-0.91,0.144-1.304,0.432
				s-0.624,0.678-0.688,1.168h3.776C275.75,71.32,275.559,70.926,275.228,70.649z"/>
			<path fill="#606060" d="M282.364,72.2V77h-2.4v-8.608h2.4v0.96c0.725-0.735,1.541-1.104,2.448-1.104s1.667,0.32,2.28,0.96
				c0.613,0.64,0.92,1.493,0.92,2.56V77h-2.4v-4.864c0-1.322-0.486-1.983-1.456-1.983c-0.48,0-0.899,0.173-1.256,0.52
				S282.364,71.528,282.364,72.2z"/>
			<path fill="#606060" d="M298.795,72.696c0,1.248-0.432,2.299-1.296,3.151c-0.864,0.854-1.95,1.28-3.256,1.28
				s-2.392-0.427-3.256-1.28c-0.864-0.853-1.296-1.903-1.296-3.151s0.432-2.302,1.296-3.16c0.864-0.858,1.949-1.288,3.256-1.288
				s2.392,0.43,3.256,1.288C298.363,70.395,298.795,71.448,298.795,72.696z M292.107,72.696c0,0.704,0.2,1.277,0.6,1.72
				c0.4,0.442,0.912,0.664,1.536,0.664s1.136-0.222,1.536-0.664s0.6-1.016,0.6-1.72s-0.2-1.28-0.6-1.729s-0.912-0.672-1.536-0.672
				s-1.136,0.224-1.536,0.672C292.307,71.416,292.107,71.992,292.107,72.696z"/>
			<path fill="#606060" d="M308.475,72.36V77h-2.416v-4.704c0-0.683-0.104-1.184-0.312-1.504s-0.544-0.48-1.008-0.48
				c-0.464,0-0.875,0.174-1.232,0.521s-0.536,0.856-0.536,1.528V77h-2.4v-8.608h2.4v0.977c0.661-0.747,1.418-1.12,2.272-1.12
				c0.544,0,1.037,0.16,1.48,0.479c0.442,0.32,0.776,0.71,1,1.169c0.331-0.523,0.776-0.929,1.336-1.217s1.123-0.432,1.688-0.432
				c1.013,0,1.829,0.302,2.448,0.904s0.928,1.475,0.928,2.615V77h-2.416v-4.704c0-1.322-0.485-1.984-1.456-1.984
				c-0.48,0-0.896,0.174-1.248,0.521S308.475,71.689,308.475,72.36z"/>
			<path fill="#606060" d="M323.754,75.752c-0.971,0.918-2.109,1.376-3.416,1.376s-2.387-0.402-3.24-1.208
				c-0.854-0.805-1.28-1.885-1.28-3.24c0-1.354,0.435-2.432,1.304-3.231c0.869-0.8,1.896-1.2,3.08-1.2s2.189,0.357,3.016,1.072
				c0.826,0.715,1.24,1.695,1.24,2.943v1.28h-6.272c0.075,0.47,0.32,0.854,0.736,1.152c0.416,0.299,0.885,0.447,1.408,0.447
				c0.843,0,1.536-0.282,2.08-0.848L323.754,75.752z M321.451,70.649c-0.331-0.277-0.733-0.416-1.208-0.416s-0.91,0.144-1.304,0.432
				s-0.624,0.678-0.688,1.168h3.776C321.973,71.32,321.781,70.926,321.451,70.649z"/>
			<path fill="#606060" d="M339.722,69.528c0,1.792-0.71,2.949-2.128,3.472l2.832,4h-3.072l-2.48-3.568h-1.728V77h-2.496V65.816
				h4.24c1.738,0,2.979,0.293,3.72,0.88S339.722,68.227,339.722,69.528z M336.714,70.857c0.309-0.277,0.464-0.718,0.464-1.32
				s-0.16-1.017-0.48-1.24c-0.32-0.224-0.88-0.336-1.68-0.336h-1.872v3.312h1.824C335.823,71.273,336.404,71.134,336.714,70.857z"/>
			<path fill="#606060" d="M349.498,75.752c-0.971,0.918-2.109,1.376-3.416,1.376s-2.387-0.402-3.24-1.208
				c-0.854-0.805-1.28-1.885-1.28-3.24c0-1.354,0.435-2.432,1.304-3.231c0.869-0.8,1.896-1.2,3.08-1.2s2.189,0.357,3.016,1.072
				c0.826,0.715,1.24,1.695,1.24,2.943v1.28h-6.272c0.075,0.47,0.32,0.854,0.736,1.152c0.416,0.299,0.885,0.447,1.408,0.447
				c0.843,0,1.536-0.282,2.08-0.848L349.498,75.752z M347.194,70.649c-0.331-0.277-0.733-0.416-1.208-0.416s-0.91,0.144-1.304,0.432
				s-0.624,0.678-0.688,1.168h3.776C347.716,71.32,347.524,70.926,347.194,70.649z"/>
			<path fill="#606060" d="M358.41,74.32c0,0.848-0.312,1.527-0.936,2.04c-0.624,0.512-1.416,0.768-2.376,0.768
				c-0.64,0-1.307-0.114-2-0.344c-0.694-0.229-1.318-0.568-1.872-1.017l1.056-1.504c0.896,0.693,1.851,1.04,2.864,1.04
				c0.309,0,0.555-0.061,0.736-0.184s0.272-0.285,0.272-0.488c0-0.202-0.125-0.389-0.376-0.56s-0.613-0.331-1.088-0.48
				s-0.837-0.277-1.088-0.384c-0.251-0.106-0.536-0.262-0.856-0.464c-0.651-0.405-0.976-1.006-0.976-1.8
				c0-0.795,0.32-1.442,0.96-1.944c0.64-0.501,1.466-0.752,2.48-0.752c1.013,0,2.026,0.342,3.04,1.024l-0.896,1.6
				c-0.747-0.512-1.491-0.769-2.232-0.769c-0.742,0-1.112,0.203-1.112,0.608c0,0.224,0.117,0.4,0.352,0.528s0.624,0.277,1.168,0.448
				c0.544,0.17,0.931,0.301,1.16,0.392s0.504,0.231,0.824,0.424C358.111,72.867,358.41,73.472,358.41,74.32z"/>
			<path fill="#606060" d="M367.705,75.752c-0.971,0.918-2.109,1.376-3.416,1.376s-2.387-0.402-3.24-1.208
				c-0.854-0.805-1.28-1.885-1.28-3.24c0-1.354,0.435-2.432,1.304-3.231c0.869-0.8,1.896-1.2,3.08-1.2s2.189,0.357,3.016,1.072
				c0.826,0.715,1.24,1.695,1.24,2.943v1.28h-6.272c0.075,0.47,0.32,0.854,0.736,1.152c0.416,0.299,0.885,0.447,1.408,0.447
				c0.843,0,1.536-0.282,2.08-0.848L367.705,75.752z M365.401,70.649c-0.331-0.277-0.733-0.416-1.208-0.416s-0.91,0.144-1.304,0.432
				s-0.624,0.678-0.688,1.168h3.776C365.923,71.32,365.731,70.926,365.401,70.649z"/>
			<path fill="#606060" d="M377.45,77h-2.256v-1.04c-0.619,0.778-1.384,1.168-2.296,1.168s-1.678-0.264-2.296-0.792
				c-0.619-0.528-0.928-1.232-0.928-2.112s0.32-1.538,0.96-1.976c0.64-0.438,1.515-0.656,2.624-0.656h1.792v-0.048
				c0-0.917-0.485-1.376-1.456-1.376c-0.416,0-0.856,0.083-1.32,0.248s-0.856,0.371-1.176,0.616l-1.072-1.552
				c1.13-0.821,2.421-1.232,3.872-1.232c1.045,0,1.898,0.262,2.56,0.784c0.661,0.522,0.992,1.35,0.992,2.479V77z M375.034,73.72
				v-0.416h-1.504c-0.96,0-1.44,0.299-1.44,0.896c0,0.31,0.115,0.547,0.344,0.712c0.229,0.165,0.557,0.248,0.984,0.248
				c0.426,0,0.802-0.131,1.128-0.393C374.871,74.507,375.034,74.157,375.034,73.72z"/>
			<path fill="#606060" d="M384.169,70.504c-0.715,0-1.248,0.254-1.6,0.76c-0.352,0.507-0.528,1.177-0.528,2.009V77h-2.4v-8.608h2.4
				v1.137c0.309-0.353,0.696-0.65,1.16-0.896c0.464-0.245,0.936-0.373,1.416-0.384l0.016,2.256H384.169z"/>
			<path fill="#606060" d="M390.346,75c0.8,0,1.52-0.4,2.16-1.2l1.424,1.601c-1.109,1.151-2.309,1.728-3.6,1.728
				c-1.291,0-2.381-0.408-3.272-1.224c-0.891-0.816-1.336-1.883-1.336-3.2s0.45-2.39,1.352-3.216c0.901-0.827,1.97-1.24,3.208-1.24
				c0.618,0,1.245,0.128,1.88,0.384c0.634,0.256,1.191,0.635,1.672,1.136l-1.248,1.633c-0.277-0.331-0.616-0.587-1.016-0.769
				c-0.4-0.181-0.797-0.271-1.192-0.271c-0.629,0-1.17,0.205-1.624,0.615c-0.454,0.411-0.68,0.981-0.68,1.713
				c0,0.73,0.226,1.298,0.68,1.703C389.207,74.798,389.737,75,390.346,75z"/>
			<path fill="#606060" d="M397.929,72.36V77h-2.4V65.128h2.4v4.224c0.726-0.735,1.538-1.104,2.439-1.104s1.662,0.32,2.28,0.96
				s0.928,1.493,0.928,2.56V77h-2.399v-4.704c0-1.322-0.485-1.984-1.456-1.984c-0.48,0-0.898,0.174-1.256,0.521
				S397.929,71.689,397.929,72.36z"/>
			<path fill="#606060" d="M410.216,65.816h2.496V77h-2.496V65.816z"/>
			<path fill="#606060" d="M417.544,72.2V77h-2.4v-8.608h2.4v0.96c0.726-0.735,1.541-1.104,2.448-1.104
				c0.906,0,1.666,0.32,2.279,0.96s0.92,1.493,0.92,2.56V77h-2.399v-4.864c0-1.322-0.485-1.983-1.456-1.983
				c-0.48,0-0.898,0.173-1.256,0.52S417.544,71.528,417.544,72.2z"/>
			<path fill="#606060" d="M431.848,74.32c0,0.848-0.312,1.527-0.937,2.04c-0.624,0.512-1.416,0.768-2.376,0.768
				c-0.64,0-1.307-0.114-2-0.344s-1.317-0.568-1.872-1.017l1.057-1.504c0.896,0.693,1.851,1.04,2.863,1.04
				c0.31,0,0.555-0.061,0.736-0.184s0.272-0.285,0.272-0.488c0-0.202-0.126-0.389-0.376-0.56c-0.251-0.171-0.614-0.331-1.088-0.48
				c-0.476-0.149-0.838-0.277-1.089-0.384c-0.25-0.106-0.535-0.262-0.855-0.464c-0.651-0.405-0.977-1.006-0.977-1.8
				c0-0.795,0.32-1.442,0.96-1.944c0.641-0.501,1.467-0.752,2.48-0.752s2.026,0.342,3.04,1.024l-0.896,1.6
				c-0.746-0.512-1.49-0.769-2.231-0.769s-1.112,0.203-1.112,0.608c0,0.224,0.117,0.4,0.353,0.528
				c0.234,0.128,0.624,0.277,1.168,0.448c0.544,0.17,0.93,0.301,1.16,0.392c0.229,0.091,0.504,0.231,0.823,0.424
				C431.549,72.867,431.848,73.472,431.848,74.32z"/>
			<path fill="#606060" d="M436.488,70.12v3.855c0,0.331,0.085,0.59,0.256,0.776s0.373,0.28,0.608,0.28
				c0.447,0,0.826-0.203,1.136-0.608l0.896,1.68c-0.747,0.684-1.534,1.024-2.36,1.024c-0.827,0-1.525-0.271-2.096-0.816
				c-0.571-0.544-0.856-1.285-0.856-2.224V70.12h-1.008v-1.729h1.008v-2.575h2.416v2.575h2.08v1.729H436.488z"/>
			<path fill="#606060" d="M440.865,67.296c-0.271-0.271-0.408-0.605-0.408-1s0.137-0.728,0.408-1c0.272-0.271,0.605-0.408,1-0.408
				s0.729,0.137,1,0.408c0.272,0.272,0.408,0.605,0.408,1s-0.136,0.729-0.408,1c-0.271,0.272-0.605,0.408-1,0.408
				S441.137,67.568,440.865,67.296z M443.065,77h-2.4v-8.608h2.4V77z"/>
			<path fill="#606060" d="M448.201,70.12v3.855c0,0.331,0.085,0.59,0.256,0.776s0.373,0.28,0.608,0.28
				c0.447,0,0.826-0.203,1.136-0.608l0.896,1.68c-0.747,0.684-1.534,1.024-2.36,1.024c-0.827,0-1.525-0.271-2.096-0.816
				c-0.571-0.544-0.856-1.285-0.856-2.224V70.12h-1.008v-1.729h1.008v-2.575h2.416v2.575h2.08v1.729H448.201z"/>
			<path fill="#606060" d="M457.928,73.032v-4.641h2.415V77h-2.415v-1.136c-0.598,0.843-1.368,1.264-2.312,1.264
				s-1.736-0.296-2.376-0.888s-0.96-1.47-0.96-2.632v-5.217h2.416v4.688c0,1.322,0.485,1.984,1.456,1.984
				c0.479,0,0.896-0.174,1.248-0.521C457.751,74.197,457.928,73.693,457.928,73.032z"/>
			<path fill="#606060" d="M465.48,70.12v3.855c0,0.331,0.085,0.59,0.256,0.776s0.373,0.28,0.608,0.28
				c0.447,0,0.826-0.203,1.136-0.608l0.896,1.68c-0.747,0.684-1.534,1.024-2.36,1.024c-0.827,0-1.525-0.271-2.096-0.816
				c-0.571-0.544-0.856-1.285-0.856-2.224V70.12h-1.008v-1.729h1.008v-2.575h2.416v2.575h2.08v1.729H465.48z"/>
			<path fill="#606060" d="M477.113,75.752c-0.971,0.918-2.109,1.376-3.416,1.376s-2.387-0.402-3.24-1.208
				c-0.854-0.805-1.279-1.885-1.279-3.24c0-1.354,0.435-2.432,1.304-3.231s1.896-1.2,3.08-1.2s2.189,0.357,3.016,1.072
				c0.827,0.715,1.24,1.695,1.24,2.943v1.28h-6.271c0.074,0.47,0.319,0.854,0.735,1.152s0.886,0.447,1.408,0.447
				c0.843,0,1.536-0.282,2.08-0.848L477.113,75.752z M474.809,70.649c-0.331-0.277-0.733-0.416-1.208-0.416
				s-0.909,0.144-1.304,0.432c-0.396,0.288-0.624,0.678-0.688,1.168h3.776C475.332,71.32,475.139,70.926,474.809,70.649z"/>
		</g>
	</g>
</g>
</svg>
