<?xml version="1.0" standalone="no"?>
<!DOCTYPE svg PUBLIC "-//W3C//DTD SVG 1.1//EN" "http://www.w3.org/Graphics/SVG/1.1/DTD/svg11.dtd" >
<svg xmlns="http://www.w3.org/2000/svg">
<metadata>Generated by IcoMoon</metadata>
<defs>
<font id="MaterialDesignIcons" horiz-adv-x="512">
<font-face units-per-em="512" ascent="506.88" descent="-5.12" />
<missing-glyph horiz-adv-x="512" />
<glyph unicode="&#x20;" horiz-adv-x="5.12" d="" />
<glyph unicode="&#xf144;" glyph-name="arrow-right" horiz-adv-x="683" d="M113.778 199.111v-56.889h341.334l-156.445-156.445 40.391-40.391 225.28 225.28-225.28 225.28-40.391-40.391 156.445-156.445h-341.334z" />
<glyph unicode="&#xf1d1;" glyph-name="camera" horiz-adv-x="683" d="M113.778 398.222h85.334l56.889 56.889h170.667l56.889-56.889h85.333c31.289 0 56.889-25.6 56.889-56.889v-341.333c0-31.289-25.6-56.889-56.889-56.889h-455.111c-31.289 0-56.889 25.6-56.889 56.889v341.334c0 31.289 25.6 56.889 56.889 56.889zM341.334 312.889c-78.507 0-142.222-63.716-142.222-142.222s63.715-142.222 142.222-142.222 142.222 63.716 142.222 142.222-63.716 142.222-142.222 142.222zM341.334 256c47.218 0 85.334-38.115 85.334-85.334s-38.115-85.334-85.334-85.334-85.334 38.115-85.334 85.334 38.115 85.334 85.334 85.334z" />
<glyph unicode="&#xf1da;" glyph-name="cart" horiz-adv-x="683" d="M483.555 0c-31.574 0-56.889-25.316-56.889-56.889 0-31.289 25.6-56.889 56.889-56.889s56.889 25.6 56.889 56.889c0 31.573-25.6 56.889-56.889 56.889zM28.445 455.111v-56.889h56.889l102.4-215.893-38.685-69.689c-4.267-7.964-6.827-17.351-6.827-27.307 0-31.289 25.6-56.889 56.889-56.889h341.333v56.889h-329.387c-3.982 0-7.111 3.129-7.111 7.111 0 1.422 0.285 2.56 0.853 3.413l25.6 46.365h211.911c21.334 0 40.106 11.947 49.778 29.298l101.831 184.036c1.991 4.551 3.413 9.387 3.413 14.222 0 15.644-12.8 28.444-28.444 28.444h-420.693l-26.738 56.889zM199.111 0c-31.573 0-56.889-25.316-56.889-56.889 0-31.289 25.6-56.889 56.889-56.889s56.889 25.6 56.889 56.889c0 31.573-25.6 56.889-56.889 56.889z" />
<glyph unicode="&#xf1db;" glyph-name="cart-outline" horiz-adv-x="683" d="M483.555 0c31.289 0 56.889-25.6 56.889-56.889s-25.6-56.889-56.889-56.889c-31.574 0-56.889 25.6-56.889 56.889 0 31.573 25.315 56.889 56.889 56.889zM28.445 455.111h93.013l26.738-56.889h420.693c15.644 0 28.444-12.8 28.444-28.444 0-4.836-1.422-9.671-3.413-14.222l-101.831-184.036c-9.671-17.351-28.445-29.298-49.778-29.298h-211.911l-25.6-46.365-0.853-3.413c0-3.982 3.129-7.111 7.111-7.111h329.387v-56.889h-341.334c-31.573 0-56.889 25.6-56.889 56.889 0 9.956 2.56 19.342 6.827 27.307l38.685 69.689-102.4 215.894h-56.889v56.889zM199.111 0c31.289 0 56.889-25.6 56.889-56.889s-25.6-56.889-56.889-56.889c-31.573 0-56.889 25.6-56.889 56.889 0 31.573 25.315 56.889 56.889 56.889zM455.111 199.111l79.076 142.222h-359.538l67.129-142.222h213.333z" />
<glyph unicode="&#xf1ec;" glyph-name="chart-areaspline" horiz-adv-x="683" d="M496.356 80.214l129.422 223.858v-389.404h-568.889v512h56.889v-356.693l156.445 271.36 184.889-107.52 120.604 208.498 49.209-28.445-148.764-257.422-185.173 106.666-168.391-291.555h64.285l124.871 215.040 184.605-106.382z" />
<glyph unicode="&#xf1f1;" glyph-name="check" horiz-adv-x="683" d="M597.333 312.889l-341.334-341.334-156.445 156.445 40.106 40.106 116.338-116.053 301.226 300.942 40.106-40.106z" />
<glyph unicode="&#xf204;" glyph-name="chevron-down" horiz-adv-x="683" d="M210.774 267.947l130.56-130.56 130.56 130.56 40.106-40.391-170.667-170.667-170.667 170.667 40.107 40.391z" />
<glyph unicode="&#xf205;" glyph-name="chevron-left" horiz-adv-x="683" d="M438.329 40.391l-130.276 130.276 130.275 130.56-40.106 40.106-170.667-170.666 170.667-170.667 40.106 40.391z" />
<glyph unicode="&#xf206;" glyph-name="chevron-right" horiz-adv-x="683" d="M244.338 40.391l130.275 130.276-130.275 130.56 40.107 40.106 170.666-170.666-170.667-170.667-40.106 40.391z" />
<glyph unicode="&#xf207;" glyph-name="chevron-up" horiz-adv-x="683" d="M210.774 73.671l130.56 130.276 130.56-130.275 40.106 40.106-170.667 170.667-170.667-170.667 40.107-40.106z" />
<glyph unicode="&#xf216;" glyph-name="close" horiz-adv-x="683" d="M540.444 329.671l-40.106 40.106-159.005-159.005-159.005 159.005-40.106-40.106 159.005-159.005-159.005-159.005 40.106-40.107 159.005 159.005 159.005-159.005 40.106 40.106-159.005 159.005 159.005 159.005z" />
<glyph unicode="&#xf26b;" glyph-name="desktop-mac" horiz-adv-x="683" d="M597.333 113.778h-512v284.445h512zM597.333 455.111h-512c-31.573 0-56.889-25.315-56.889-56.889v-341.334c0-31.289 25.6-56.889 56.889-56.889h199.111l-56.889-85.333v-28.444h227.555v28.444l-56.889 85.333h199.111c31.289 0 56.889 25.6 56.889 56.889v341.334c0 31.574-25.6 56.889-56.889 56.889z" />
<glyph unicode="&#xf286;" glyph-name="dribbble" horiz-adv-x="683" d="M467.058-11.947c-11.947 54.613-26.169 104.96-40.391 149.333 14.222 1.991 28.445 3.129 44.942 3.129h0.569c26.454 0 55.466-3.413 87.040-10.524-10.809-58.88-44.942-109.226-92.16-141.938zM341.334-51.2c-49.493 0-95.005 16.213-131.982 43.804 7.964 12.8 24.746 37.546 51.769 63.147 27.307 26.454 65.991 53.76 115.2 69.974 16.782-47.502 32.142-101.546 43.805-162.418-24.462-9.386-50.346-14.506-78.791-14.506zM119.466 170.666v3.129c6.258-0.284 14.506-0.284 24.178-0.284h0.285c44.374 0.284 122.311 3.982 201.387 28.729 4.267-9.387 8.534-19.058 12.8-29.298-52.906-17.635-94.435-45.796-125.156-73.387-29.298-27.306-49.493-53.76-61.156-71.111-32.427 38.115-52.338 87.894-52.338 142.222zM243.2 369.778c15.644-18.489 46.365-58.596 79.36-120.889-66.56-20.195-134.542-24.747-175.218-24.747h-3.698c-6.827 0-12.8 0-17.636 0.284 16.214 63.715 58.88 116.906 117.191 145.351zM341.334 392.534c52.338 0 100.409-18.204 138.24-48.64-29.014-34.986-67.129-59.449-108.942-77.938-29.298 56.32-57.742 96.711-76.516 121.458 15.36 3.129 31.005 5.12 47.218 5.12zM515.698 307.769c27.591-35.271 44.942-79.076 47.218-126.578-32.142 6.827-62.293 9.956-90.738 9.956h-0.284c-22.755 0-44.089-1.991-64.284-5.404-4.836 11.947-9.387 23.325-14.791 34.418 44.942 19.627 87.894 47.786 122.88 87.609zM341.334 455.111c-157.013 0-284.445-127.431-284.445-284.445s127.431-284.445 284.445-284.445 284.445 127.431 284.445 284.445-127.431 284.445-284.445 284.445z" />
<glyph unicode="&#xf2aa;" glyph-name="facebook" horiz-adv-x="683" d="M483.555 455.111v-113.778h-56.889c-19.627 0-28.445-23.040-28.445-42.666v-71.111h85.334v-113.778h-85.334v-227.555h-113.778v227.555h-85.334v113.778h85.334v113.778c0 62.862 50.916 113.778 113.778 113.778h85.334z" />
<glyph unicode="&#xf309;" glyph-name="format-paint" horiz-adv-x="683" d="M512 398.222v28.445c0 15.645-12.8 28.445-28.445 28.445h-341.334c-15.644 0-28.445-12.8-28.445-28.445v-113.778c0-15.644 12.8-28.445 28.445-28.445h341.334c15.644 0 28.445 12.8 28.445 28.445v28.444h28.444v-113.778h-284.445v-312.889c0-15.644 12.8-28.444 28.445-28.444h56.889c15.644 0 28.445 12.8 28.445 28.444v256h227.555v227.555h-85.334z" />
<glyph unicode="&#xf339;" glyph-name="google-plus" horiz-adv-x="683" d="M264.534-122.311c-94.72 0-155.022 42.382-155.022 105.245 0 62.578 55.751 82.774 75.378 89.885 36.978 12.515 85.334 13.938 93.014 13.938 8.534 0 13.084 0 20.764-0.569 66.56-48.071 95.289-69.404 95.289-114.631 0-50.346-51.769-93.866-129.422-93.866zM160.711 389.404c0 62.862 37.262 91.307 76.516 91.307 75.662 0 114.062-98.134 114.062-157.298 0-73.102-58.88-87.325-82.204-87.325-69.974 0-108.374 87.040-108.374 153.315zM378.311 129.422l-30.72 24.178c-10.24 8.534-23.325 19.627-23.325 40.391s15.644 36.694 27.591 46.080c37.262 29.014 73.102 59.733 73.102 123.449 0 58.88-36.125 92.729-58.026 111.502h49.778l35.555 35.555h-177.209c-124.018 0-187.733-77.084-187.733-162.702 0-66.276 50.916-137.387 141.654-137.387h22.756c-3.698-9.956-9.956-23.894-9.956-36.978 0-28.729 11.947-40.675 26.169-56.889-40.391-2.844-114.062-12.231-168.391-45.511-52.907-31.289-65.422-74.809-65.422-106.667 0-65.422 58.596-128 186.88-128 152.178 0 228.409 84.196 228.409 167.254 0 61.44-32.142 93.014-71.111 125.725zM597.333 227.555v85.334h-56.889v-85.334h-85.334v-56.889h85.334v-85.334h56.889v85.334h85.333v56.889h-85.333z" />
<glyph unicode="&#xf362;" glyph-name="image-area" horiz-adv-x="683" d="M568.889 369.778c31.289 0 56.889-25.6 56.889-56.889v-284.445c0-31.289-25.6-56.889-56.889-56.889h-455.111c-31.573 0-56.889 25.6-56.889 56.889v284.445c0 31.574 25.316 56.889 56.889 56.889h455.111zM142.222 56.889h398.222l-128 170.667-99.555-128-71.111 85.334-99.555-128z" />
<glyph unicode="&#xf390;" glyph-name="laptop-mac" horiz-adv-x="683" d="M113.778 369.778h455.111v-284.445h-455.111zM568.889 0v28.445c31.289 0 56.889 25.6 56.889 56.889v284.445c0 31.573-25.6 56.889-56.889 56.889h-455.111c-31.289 0-56.889-25.6-56.889-56.889v-284.445c0-31.289 25.6-56.889 56.889-56.889v-28.445h-113.778v-56.889h682.667v56.889h-113.778z" />
<glyph unicode="&#xf3ab;" glyph-name="magnify" horiz-adv-x="683" d="M270.222 426.666c102.115 0 184.889-82.773 184.889-184.889 0-45.796-16.782-87.894-44.373-120.32l7.68-7.68h22.471l142.222-142.222-42.667-42.667-142.222 142.222v22.471l-7.68 7.68c-32.426-27.591-74.524-44.373-120.32-44.373-102.115 0-184.889 82.774-184.889 184.889s82.774 184.889 184.889 184.889zM270.222 369.778c-71.111 0-128-56.889-128-128s56.889-128 128-128 128 56.889 128 128-56.889 128-128 128z" />
<glyph unicode="&#xf3bc;" glyph-name="menu" horiz-adv-x="683" d="M85.334 341.333h512v-56.889h-512v56.889zM85.334 199.111h512v-56.889h-512v56.889zM85.334 56.889h512v-56.889h-512v56.889z" />
<glyph unicode="&#xf4a8;" glyph-name="server-network" horiz-adv-x="683" d="M369.778 0h28.445c15.644 0 28.445-12.8 28.445-28.444h199.111v-56.889h-199.111c0-15.644-12.8-28.444-28.445-28.444h-113.778c-15.644 0-28.445 12.8-28.445 28.444h-199.111v56.889h199.111c0 15.644 12.8 28.445 28.445 28.445h28.445v56.889h-199.111c-15.644 0-28.445 12.8-28.445 28.445v113.778c0 15.644 12.8 28.445 28.445 28.445h455.111c15.644 0 28.444-12.8 28.444-28.445v-113.778c0-15.644-12.8-28.445-28.444-28.445h-199.111v-56.889zM113.778 455.111h455.111c15.644 0 28.444-12.8 28.444-28.445v-113.778c0-15.644-12.8-28.445-28.444-28.445h-455.111c-15.644 0-28.445 12.8-28.445 28.445v113.778c0 15.645 12.8 28.445 28.445 28.445zM256 341.333h28.445v56.889h-28.445v-56.889zM256 113.778h28.445v56.889h-28.445v-56.889zM142.222 398.222v-56.889h56.889v56.889h-56.889zM142.222 170.666v-56.889h56.889v56.889h-56.889z" />
<glyph unicode="&#xf4ae;" glyph-name="settings" horiz-adv-x="683" d="M341.334 71.111c-54.898 0-99.555 44.658-99.555 99.555s44.658 99.555 99.555 99.555 99.555-44.658 99.555-99.555-44.658-99.555-99.555-99.555zM552.676 143.075c1.138 9.102 1.991 18.204 1.991 27.591s-0.854 18.774-1.991 28.445l60.018 46.365c5.404 4.267 6.827 11.947 3.413 18.204l-56.889 98.418c-3.413 6.258-11.093 8.818-17.351 6.258l-70.827-28.444c-14.791 11.093-30.151 20.764-48.071 27.875l-10.524 75.378c-1.138 6.826-7.111 11.946-14.222 11.946h-113.778c-7.111 0-13.084-5.12-14.222-11.946l-10.524-75.378c-17.92-7.111-33.28-16.782-48.071-27.875l-70.826 28.444c-6.258 2.56-13.938 0-17.351-6.258l-56.889-98.418c-3.698-6.258-1.991-13.938 3.413-18.204l60.018-46.365c-1.138-9.671-1.991-19.058-1.991-28.445s0.853-18.489 1.991-27.591l-60.018-47.218c-5.404-4.267-7.111-11.947-3.413-18.204l56.889-98.418c3.413-6.258 11.094-8.534 17.351-6.258l70.827 28.729c14.791-11.378 30.151-21.049 48.071-28.16l10.524-75.378c1.138-6.827 7.111-11.947 14.222-11.947h113.778c7.111 0 13.084 5.12 14.222 11.947l10.524 75.378c17.92 7.395 33.28 16.782 48.071 28.16l70.827-28.729c6.258-2.275 13.938 0 17.351 6.258l56.889 98.418c3.413 6.258 1.991 13.938-3.413 18.204l-60.018 47.218z" />
<glyph unicode="&#xf4d4;" glyph-name="star" horiz-adv-x="683" d="M341.334 20.764l175.786-106.098-46.649 199.964 155.307 134.542-204.515 17.635-79.929 188.302-79.929-188.302-204.516-17.635 155.022-134.542-46.364-199.964 175.786 106.098z" />
<glyph unicode="&#xf535;" glyph-name="twitter" horiz-adv-x="683" d="M638.862 341.333c-21.902-9.955-45.511-16.498-69.973-19.626 25.031 15.076 44.374 38.969 53.476 67.698-23.609-14.222-49.778-24.178-77.369-29.866-22.471 24.462-54.044 38.685-89.885 38.685-66.844 0-121.458-54.613-121.458-122.026 0-9.671 1.138-19.058 3.129-27.875-101.262 5.12-191.431 53.76-251.449 127.431-10.525-17.92-16.498-38.969-16.498-61.156 0-42.382 21.334-79.929 54.329-101.262-20.195 0-38.969 5.689-55.466 14.222v-0.853c0-59.164 42.098-108.658 97.849-119.751-10.24-2.844-21.049-4.267-32.142-4.267-7.68 0-15.36 0.853-22.755 2.276 15.36-48.071 60.018-83.911 113.778-84.764-41.529-32.995-94.151-52.338-151.609-52.338-9.671 0-19.342 0.569-29.014 1.707 54.045-34.702 118.329-54.898 187.165-54.898 224.142 0 347.307 186.026 347.307 347.307 0 5.404 0 10.524-0.284 15.929 23.894 17.067 44.374 38.685 60.871 63.431z" />
<glyph unicode="&#xf540;" glyph-name="vector-curve" horiz-adv-x="683" d="M526.222 455.111c23.609 0 42.667-19.058 42.667-42.666s-19.058-42.666-42.667-42.666c-6.542 0-12.8 1.422-18.489 4.267l-104.96-105.245 9.671-12.8c62.293 35.84 135.396 56.889 213.334 56.889l28.444-0.853v-57.173l-28.444 1.138c-73.386 0-142.222-21.333-199.111-58.026 0-62.293-50.346-112.64-112.64-112.64-36.693-56.889-58.026-125.725-58.026-199.111l1.138-28.444h-57.173l-0.853 28.444c0 77.938 21.049 151.040 56.889 213.333l-12.8 9.671-105.245-104.96c2.845-5.689 4.267-11.947 4.267-18.489 0-23.609-19.058-42.667-42.666-42.667s-42.666 19.058-42.666 42.667 19.058 42.666 42.666 42.666c6.542 0 12.8-1.422 18.489-4.267l104.96 105.245c-15.076 19.058-23.893 43.52-23.893 69.689 0 62.862 50.916 113.778 113.778 113.778 26.169 0 50.631-8.818 69.689-23.894l105.245 104.96c-2.844 5.689-4.267 11.947-4.267 18.489 0 23.609 19.058 42.666 42.666 42.666zM312.889 256c-31.289 0-56.889-25.6-56.889-56.889s25.6-56.889 56.889-56.889 56.889 25.6 56.889 56.889-25.6 56.889-56.889 56.889z" />
<glyph unicode="&#xf545;" glyph-name="video" horiz-adv-x="683" d="M483.555 213.334v99.555c0 15.644-12.8 28.445-28.445 28.445h-341.334c-15.644 0-28.445-12.8-28.445-28.445v-284.445c0-15.644 12.8-28.445 28.445-28.445h341.334c15.644 0 28.445 12.8 28.445 28.445v99.555l113.778-113.778v312.889l-113.778-113.778z" />
<glyph unicode="&#xf591;" glyph-name="youtube-play" horiz-adv-x="683" d="M284.445 42.666v256l170.666-128zM568.889 386.844c-17.067 5.689-122.311 11.378-227.555 11.378s-210.489-5.404-227.555-10.809c-44.374-14.791-56.889-114.346-56.889-216.746 0-102.115 12.515-201.956 56.889-216.462 17.066-5.689 122.311-11.093 227.555-11.093s210.489 5.404 227.555 11.093c44.374 14.506 56.889 114.346 56.889 216.462 0 102.4-12.515 201.671-56.889 216.178z" />
</font>
</defs>
</svg>
